<svg width="23" height="15" viewBox="0 0 23 15" fill="none" xmlns="http://www.w3.org/2000/svg">
<g clip-path="url(#clip0_51_35)">
<mask id="mask0_51_35" style="mask-type:luminance" maskUnits="userSpaceOnUse" x="0" y="0" width="23" height="15">
<path d="M22.181 0H0.949219V15H22.181V0Z" fill="white"/>
</mask>
<g mask="url(#mask0_51_35)">
<path d="M21.7619 7.70508C21.7619 7.59766 21.7182 7.50977 21.6309 7.43164L14.2539 0.791016C14.0903 0.625 13.9702 0.585938 13.8502 0.585938C13.6101 0.585938 13.4246 0.751953 13.4246 0.957031C13.4246 1.06445 13.4574 1.16211 13.5446 1.23047L17.8988 5.13672L20.507 7.39258L18.1171 7.33398H1.91169C1.68253 7.33398 1.49701 7.49023 1.49701 7.70508C1.49701 7.91992 1.68253 8.07617 1.91169 8.07617H18.1171L20.507 8.02734L17.8988 10.2734L13.5446 14.1797C13.4682 14.248 13.4246 14.3555 13.4246 14.4629C13.4246 14.6582 13.6101 14.8242 13.8502 14.8242C13.9702 14.8242 14.0684 14.7852 14.1558 14.707L21.6309 7.97852C21.7182 7.90039 21.7619 7.8125 21.7619 7.70508Z" fill="#2743FD"/>
</g>
</g>
<defs>
<clipPath id="clip0_51_35">
<rect width="21.2317" height="15" fill="white" transform="translate(0.949219)"/>
</clipPath>
</defs>
</svg>
