<svg width="34" height="28" viewBox="0 0 34 28" fill="none" xmlns="http://www.w3.org/2000/svg">
<g clip-path="url(#clip0_54_995)">
<path d="M32.2864 4.6608C31.6279 3.94514 30.7187 3.52225 29.684 3.52225H24.4792V3.45719C24.4792 2.64393 24.1657 1.86321 23.6327 1.34273C23.0997 0.789718 22.3785 0.464417 21.5947 0.464417H12.1885C11.3733 0.464417 10.6521 0.789718 10.1191 1.34273C9.58611 1.89574 9.27257 2.64393 9.27257 3.45719V3.52225H4.09918C3.0645 3.52225 2.15523 3.94514 1.4968 4.6608C0.838369 5.34394 0.399414 6.31984 0.399414 7.3608V23.5608C0.399414 24.6343 0.807015 25.5777 1.4968 26.2608C2.15523 26.9439 3.09585 27.3994 4.09918 27.3994H29.684C30.7187 27.3994 31.6279 26.9765 32.2864 26.2608C32.9448 25.5777 33.3837 24.6018 33.3837 23.5608V7.3608C33.3837 6.28731 32.9761 5.34394 32.2864 4.6608ZM31.7533 23.5608H31.722C31.722 24.1463 31.5025 24.6668 31.1263 25.0572C30.75 25.4475 30.2483 25.6753 29.684 25.6753H4.09918C3.53481 25.6753 3.03314 25.4475 2.6569 25.0572C2.28065 24.6668 2.06117 24.1463 2.06117 23.5608V7.3608C2.06117 6.77526 2.28065 6.25478 2.6569 5.86442C3.03314 5.47406 3.53481 5.24634 4.09918 5.24634H10.1505C10.6208 5.24634 10.997 4.85598 10.997 4.36803V3.42466C10.997 3.06683 11.1225 2.74153 11.3419 2.51381C11.5614 2.2861 11.8749 2.15598 12.2198 2.15598H21.5947C21.9396 2.15598 22.2531 2.2861 22.4726 2.51381C22.692 2.74153 22.8175 3.06683 22.8175 3.42466V4.36803C22.8175 4.85598 23.1937 5.24634 23.664 5.24634H29.7153C30.2797 5.24634 30.7814 5.47406 31.1576 5.86442C31.5339 6.25478 31.7533 6.77526 31.7533 7.3608V23.5608Z" fill="#3A3A3A"/>
<path d="M16.8915 7.45837C14.7595 7.45837 12.8155 8.36922 11.4359 9.80054C10.025 11.2644 9.17847 13.2487 9.17847 15.4608C9.17847 17.6728 10.0564 19.6897 11.4359 21.121C12.8469 22.5849 14.7595 23.4632 16.8915 23.4632C19.0236 23.4632 20.9675 22.5524 22.3471 21.121C23.758 19.6572 24.6046 17.6728 24.6046 15.4608C24.6046 13.2487 23.7267 11.2319 22.3471 9.80054C20.9675 8.36922 19.0236 7.45837 16.8915 7.45837ZM21.1557 19.9174C20.0583 21.0234 18.5533 21.7391 16.8915 21.7391C15.2298 21.7391 13.7248 21.0234 12.6274 19.9174C11.53 18.7789 10.8716 17.2174 10.8716 15.4933C10.8716 13.7692 11.5614 12.2078 12.6274 11.0692C13.7248 9.93066 15.2298 9.24753 16.8915 9.24753C18.5533 9.24753 20.0583 9.96319 21.1557 11.0692C22.2531 12.2078 22.9115 13.7692 22.9115 15.4933C22.9428 17.2174 22.2531 18.7789 21.1557 19.9174Z" fill="#3A3A3A"/>
<path d="M28.0536 10.6138C28.9021 10.6138 29.5899 9.90015 29.5899 9.01982C29.5899 8.13949 28.9021 7.42584 28.0536 7.42584C27.2051 7.42584 26.5172 8.13949 26.5172 9.01982C26.5172 9.90015 27.2051 10.6138 28.0536 10.6138Z" fill="#3A3A3A"/>
</g>
<defs>
<clipPath id="clip0_54_995">
<rect width="33" height="27" fill="white" transform="translate(0.399414 0.399353)"/>
</clipPath>
</defs>
</svg>
