<svg width="20" height="15" viewBox="0 0 20 15" fill="none" xmlns="http://www.w3.org/2000/svg">
<path d="M0 3.75195H19.3008V2.93457C19.3008 1.12402 18.3779 0.209961 16.541 0.209961H2.75977C0.92285 0.209961 0 1.12402 0 2.93457V3.75195ZM0 12.2773C0 14.0879 0.92285 14.9932 2.75977 14.9932H16.541C18.3779 14.9932 19.3008 14.0879 19.3008 12.2773V5.74707H0V12.2773ZM2.93555 10.1328V8.5068C2.93555 8.0146 3.27832 7.6631 3.79687 7.6631H5.95019C6.46875 7.6631 6.81152 8.0146 6.81152 8.5068V10.1328C6.81152 10.6338 6.46875 10.9766 5.95019 10.9766H3.79687C3.27832 10.9766 2.93555 10.6338 2.93555 10.1328Z" fill="#2B47FC"/>
</svg>
