<svg width="209" height="305" viewBox="0 0 209 305" fill="none" xmlns="http://www.w3.org/2000/svg">
<g clip-path="url(#clip0_373_243)">
<g filter="url(#filter0_d_373_243)">
<path d="M169 0H40C17.9086 0 0 17.9086 0 40V265C0 287.091 17.9086 305 40 305H169C191.091 305 209 287.091 209 265V40C209 17.9086 191.091 0 169 0Z" fill="white"/>
<path d="M169 0H40C17.9086 0 0 17.9086 0 40V265C0 287.091 17.9086 305 40 305H169C191.091 305 209 287.091 209 265V40C209 17.9086 191.091 0 169 0Z" fill="url(#paint0_radial_373_243)"/>
<path d="M169 0H40C17.9086 0 0 17.9086 0 40V265C0 287.091 17.9086 305 40 305H169C191.091 305 209 287.091 209 265V40C209 17.9086 191.091 0 169 0Z" fill="url(#paint1_radial_373_243)"/>
<path d="M169 0H40C17.9086 0 0 17.9086 0 40V265C0 287.091 17.9086 305 40 305H169C191.091 305 209 287.091 209 265V40C209 17.9086 191.091 0 169 0Z" fill="url(#paint2_radial_373_243)"/>
</g>
</g>
<defs>
<filter id="filter0_d_373_243" x="-49" y="-40" width="307" height="403" filterUnits="userSpaceOnUse" color-interpolation-filters="sRGB">
<feFlood flood-opacity="0" result="BackgroundImageFix"/>
<feColorMatrix in="SourceAlpha" type="matrix" values="0 0 0 0 0 0 0 0 0 0 0 0 0 0 0 0 0 0 127 0" result="hardAlpha"/>
<feOffset dy="9"/>
<feGaussianBlur stdDeviation="24.5"/>
<feComposite in2="hardAlpha" operator="out"/>
<feColorMatrix type="matrix" values="0 0 0 0 0.34902 0 0 0 0 0.533333 0 0 0 0 0.972549 0 0 0 0.2 0"/>
<feBlend mode="normal" in2="BackgroundImageFix" result="effect1_dropShadow_373_243"/>
<feBlend mode="normal" in="SourceGraphic" in2="effect1_dropShadow_373_243" result="shape"/>
</filter>
<radialGradient id="paint0_radial_373_243" cx="0" cy="0" r="1" gradientUnits="userSpaceOnUse" gradientTransform="translate(46.5 272) rotate(-58.5598) scale(381.512 218.972)">
<stop offset="0.300458" stop-color="#40D3F2"/>
<stop offset="1" stop-color="#40D3F2" stop-opacity="0"/>
</radialGradient>
<radialGradient id="paint1_radial_373_243" cx="0" cy="0" r="1" gradientUnits="userSpaceOnUse" gradientTransform="translate(161.5 57) rotate(-55.7681) scale(175.987 138.334)">
<stop stop-color="#E100FF"/>
<stop offset="1" stop-color="#E100FF" stop-opacity="0"/>
</radialGradient>
<radialGradient id="paint2_radial_373_243" cx="0" cy="0" r="1" gradientUnits="userSpaceOnUse" gradientTransform="translate(224 254.5) rotate(88.389) scale(160.063 185.892)">
<stop stop-color="#2B47FC" stop-opacity="0.988235"/>
<stop offset="1" stop-color="#2B47FC" stop-opacity="0"/>
</radialGradient>
<clipPath id="clip0_373_243">
<rect width="288" height="403" fill="white" transform="translate(-30 -40)"/>
</clipPath>
</defs>
</svg>
