<svg width="254" height="320" viewBox="0 0 254 320" fill="none" xmlns="http://www.w3.org/2000/svg">
<path d="M154.468 -69.113C184.578 -97.1198 199.633 -111.123 216.96 -115.713C232.177 -119.743 248.564 -118.946 263.43 -113.451C280.358 -107.195 294.329 -91.7785 322.271 -60.9465L428.402 56.1622C455.597 86.1697 469.194 101.173 472.701 117.033C475.781 130.967 473.648 145.337 466.64 157.863C458.662 172.121 441.253 182.797 406.434 204.15L324.705 254.272C308.969 263.922 301.102 268.747 293.031 271.388C274.85 277.337 254.598 276.15 237.102 268.109C229.337 264.54 221.986 258.823 207.285 247.388C201.94 243.231 199.267 241.152 196.863 238.886C191.488 233.82 187.05 228.007 183.726 221.68C182.24 218.85 181.045 215.864 178.656 209.891L168.288 183.971C164.641 174.852 162.817 170.293 160.301 166.07C158.067 162.321 155.429 158.774 152.427 155.483C149.046 151.777 145.053 148.515 137.066 141.99L131.746 137.645C128.47 134.968 126.832 133.63 125.111 132.387C123.581 131.283 122.003 130.235 120.381 129.247C118.555 128.135 116.655 127.124 112.854 125.101L93.4167 114.758C90.9661 113.454 89.7409 112.802 88.5772 112.128C76.0217 104.848 66.2426 94.2218 60.6302 81.759C60.11 80.6039 59.626 79.3985 58.6581 76.9878C57.0549 72.9949 56.2533 70.9986 55.6364 69.1113C48.8975 48.4972 54.0073 26.4132 69.2342 10.3427C70.6283 8.87148 72.2383 7.37391 75.4583 4.37878L154.468 -69.113Z" fill="#B52FF8"/>
<path d="M220.089 -94.0785C256.106 -125.069 274.115 -140.565 294.361 -145.174C312.143 -149.222 331.077 -147.673 348.085 -140.779C367.45 -132.93 383.07 -114.683 414.311 -78.1907L456.661 -28.7213C485.582 5.0614 500.043 21.9528 503.833 39.7056C507.165 55.3171 504.903 71.3512 497.377 85.4534C488.819 101.49 470.24 113.788 433.081 138.385L335.815 202.769C322.285 211.726 315.52 216.204 309.928 218.792C268.324 238.055 216.44 221.075 196.759 181.757C194.114 176.472 191.811 169.027 187.205 154.135L185.272 147.885C179.273 128.488 164.588 112.055 144.815 102.611C96.5188 79.544 86.4478 20.9116 125.073 -12.3232L220.089 -94.0785Z" fill="#40CEF2"/>
</svg>
