<svg width="21" height="17" viewBox="0 0 21 17" fill="none" xmlns="http://www.w3.org/2000/svg">
<g clip-path="url(#clip0_53_279)">
<path d="M10.0635 2.99998C6.22044 2.99998 2.73536 5.1043 0.163732 8.52229C-0.0461137 8.80231 -0.0461137 9.19353 0.163732 9.47356C2.73536 12.8957 6.22044 15 10.0635 15C13.9065 15 17.3916 12.8957 19.9633 9.47767C20.1731 9.19765 20.1731 8.80643 19.9633 8.5264C17.3916 5.1043 13.9065 2.99998 10.0635 2.99998ZM10.3392 13.2251C7.78811 13.3857 5.68143 11.2814 5.8419 8.72407C5.97357 6.61563 7.68113 4.90664 9.78781 4.77486C12.3389 4.61426 14.4456 6.71858 14.2851 9.27589C14.1493 11.3802 12.4417 13.0892 10.3392 13.2251ZM10.2116 11.2731C8.83734 11.3596 7.7017 10.2272 7.79222 8.85173C7.86217 7.71515 8.78385 6.79682 9.91948 6.7227C11.2938 6.63622 12.4294 7.76868 12.3389 9.14411C12.2648 10.2848 11.3431 11.2031 10.2116 11.2731Z" fill="#292929"/>
<path d="M1.76233 1.57141L17.7781 15.9037" stroke="#292929" stroke-width="1.5" stroke-linecap="square"/>
</g>
<defs>
<clipPath id="clip0_53_279">
<rect width="20.1143" height="17" fill="white" transform="translate(0.00634766)"/>
</clipPath>
</defs>
</svg>
