<svg width="21" height="22" viewBox="0 0 21 22" fill="none" xmlns="http://www.w3.org/2000/svg">
<path d="M9.81787 20.706H4.08899C2.53208 20.706 1.26884 19.4381 1.26884 17.8858V4.07874C1.26884 2.52182 2.53674 1.25858 4.08899 1.25858H9.91109C10.2607 1.25858 10.5404 0.978896 10.5404 0.629291C10.5404 0.279685 10.2607 0 9.91109 0H4.08899C1.83753 0 0.0102539 1.83193 0.0102539 4.07874V17.8858C0.0102539 20.1373 1.84219 21.9646 4.08899 21.9646H9.81787C10.1675 21.9646 10.4472 21.6849 10.4472 21.3353C10.4472 20.9857 10.1628 20.706 9.81787 20.706Z" fill="#2B47FC"/>
<path d="M20.1848 10.5394L16.1853 6.53991C15.9382 6.29285 15.542 6.29285 15.295 6.53991C15.0479 6.78696 15.0479 7.18318 15.295 7.43024L18.2223 10.3576H5.45473C5.10512 10.3576 4.82544 10.6373 4.82544 10.9869C4.82544 11.3365 5.10512 11.6162 5.45473 11.6162H18.2223L15.295 14.5436C15.0479 14.7906 15.0479 15.1868 15.295 15.4339C15.4162 15.5551 15.5793 15.6203 15.7378 15.6203C15.8963 15.6203 16.0594 15.5597 16.1806 15.4339L20.1801 11.4344C20.4318 11.1827 20.4318 10.7818 20.1848 10.5394Z" fill="#2B47FC"/>
</svg>
