<svg width="54" height="54" viewBox="0 0 54 54" fill="none" xmlns="http://www.w3.org/2000/svg">
<path fill-rule="evenodd" clip-rule="evenodd" d="M31.9187 10.0036L27.4446 14.919L22.9705 10.0036C21.237 8.0991 18.8036 7 16.1792 7C11.1097 7 7 11.1097 7 16.1792V37.8948C7 42.9644 11.1097 47.074 16.1792 47.074C18.8036 47.074 21.237 45.9749 22.9705 44.0704L27.4446 39.155L31.9187 44.0704C33.6522 45.9749 36.0856 47.074 38.71 47.074C43.7796 47.074 47.8892 42.9644 47.8892 37.8948V16.1792C47.8892 11.1097 43.7796 7 38.71 7C36.0856 7 33.6522 8.0991 31.9187 10.0036Z" stroke="url(#paint0_linear_122_189)" stroke-width="12.0999"/>
<defs>
<linearGradient id="paint0_linear_122_189" x1="-1316.7" y1="-363.967" x2="4785.39" y2="4216.4" gradientUnits="userSpaceOnUse">
<stop stop-color="#00DBDE"/>
<stop offset="1" stop-color="#F407FE"/>
</linearGradient>
</defs>
</svg>
