<svg width="18" height="19" viewBox="0 0 18 19" fill="none" xmlns="http://www.w3.org/2000/svg">
<path d="M8.96485 18.6191C13.8604 18.6191 17.9296 14.5586 17.9296 9.6543C17.9296 4.75879 13.8516 0.689453 8.95605 0.689453C4.05176 0.689453 0 4.75879 0 9.6543C0 14.5586 4.06055 18.6191 8.96485 18.6191ZM8.95605 15.042C8.70115 15.042 8.49905 14.8574 8.49905 14.585V13.917C7.24219 13.7852 6.19629 13.0996 5.92383 12.0098C5.90625 11.9131 5.87988 11.8252 5.87988 11.7197C5.87988 11.3945 6.11719 11.166 6.43359 11.166C6.71484 11.166 6.9082 11.3154 7.01367 11.6406C7.17188 12.2646 7.66406 12.7305 8.49905 12.8535V10.0762L8.43755 10.0586C6.87305 9.6807 6.06445 8.96875 6.06445 7.76465C6.06445 6.48145 7.0752 5.59375 8.49905 5.42676V4.78516C8.49905 4.5127 8.69235 4.32812 8.95605 4.32812C9.21095 4.32812 9.41305 4.52148 9.41305 4.78516V5.42676C10.6171 5.56738 11.5751 6.27051 11.8212 7.29004C11.8476 7.38672 11.8653 7.4834 11.8653 7.58008C11.8653 7.90527 11.6368 8.13379 11.3116 8.13379C11.0127 8.13379 10.8281 7.95801 10.7315 7.66797C10.5469 7.03516 10.081 6.63965 9.41305 6.5166V9.1445L9.52735 9.1621C11.1446 9.5488 11.9971 10.2344 11.9971 11.5088C11.9971 12.9414 10.872 13.7852 9.41305 13.9258V14.585C9.41305 14.8486 9.21095 15.042 8.95605 15.042ZM8.49905 8.90723V6.5166C7.7168 6.65723 7.2334 7.14062 7.2334 7.71191C7.2334 8.25684 7.59375 8.66113 8.42875 8.88965L8.49905 8.90723ZM9.41305 10.2959V12.8535C10.371 12.7393 10.8281 12.2471 10.8281 11.5791C10.8281 10.9639 10.4853 10.6299 9.50095 10.3311L9.41305 10.2959Z" fill="#2B47FC"/>
</svg>
