<svg width="32" height="26" viewBox="0 0 32 26" fill="none" xmlns="http://www.w3.org/2000/svg">
<mask id="mask0_117_77" style="mask-type:luminance" maskUnits="userSpaceOnUse" x="0" y="0" width="32" height="26">
<path d="M32 0H0V25.26H32V0Z" fill="white"/>
</mask>
<g mask="url(#mask0_117_77)">
<path d="M31.3684 12.9755C31.3684 12.7946 31.3026 12.6466 31.1711 12.515L20.0526 1.33217C19.806 1.0526 19.625 0.986816 19.4441 0.986816C19.0823 0.986816 18.8027 1.26639 18.8027 1.61174C18.8027 1.79263 18.8521 1.95709 18.9836 2.07221L25.5461 8.65033L29.4771 12.4492L25.8751 12.3505H1.45068C1.10529 12.3505 0.825684 12.6136 0.825684 12.9755C0.825684 13.3372 1.10529 13.6004 1.45068 13.6004H25.8751L29.4771 13.5181L25.5461 17.3005L18.9836 23.8787C18.8684 23.9937 18.8027 24.1748 18.8027 24.3556C18.8027 24.6845 19.0823 24.9641 19.4441 24.9641C19.625 24.9641 19.773 24.8984 19.9047 24.7667L31.1711 13.4359C31.3026 13.3044 31.3684 13.1563 31.3684 12.9755Z" fill="white"/>
</g>
</svg>
