<svg width="187" height="202" viewBox="0 0 187 202" fill="none" xmlns="http://www.w3.org/2000/svg">
<g clip-path="url(#clip0_122_548)">
<path d="M167.857 185.19H154.056V201.512H167.857V185.19Z" fill="url(#paint0_linear_122_548)"/>
<path d="M154.378 200.916H167.538V185.188H154.378V200.916Z" fill="#F5F5F5"/>
<path d="M32.7368 185.19H18.9361V201.512H32.7368V185.19Z" fill="url(#paint1_linear_122_548)"/>
<path d="M32.4179 185.19H19.2577V200.918H32.4179V185.19Z" fill="#F5F5F5"/>
<path d="M179.077 0H7.39698C3.31174 0 0 3.31174 0 7.39698V180.039C0 184.125 3.31174 187.436 7.39698 187.436H179.077C183.162 187.436 186.474 184.125 186.474 180.039V7.39698C186.474 3.31174 183.162 0 179.077 0Z" fill="url(#paint2_linear_122_548)"/>
<path d="M178.112 0.962158H8.68082C4.59558 0.962158 1.28384 4.2739 1.28384 8.35914V177.791C1.28384 181.876 4.59558 185.188 8.68082 185.188H178.112C182.198 185.188 185.509 181.876 185.509 177.791V8.35914C185.509 4.2739 182.198 0.962158 178.112 0.962158Z" fill="#FAFAFA"/>
<path d="M155.502 30.6501H30.9718V156.465H155.502V30.6501Z" fill="url(#paint3_linear_122_548)"/>
<path d="M127.404 73.178L167.421 62.5601L172.607 82.1038L132.59 92.7217L127.404 73.178Z" fill="url(#paint4_linear_122_548)"/>
<path d="M127.795 73.407L167.193 62.9534L172.214 81.8779L132.816 92.3315L127.795 73.407Z" fill="white"/>
<path d="M129.253 73.6829L166.069 63.9145L170.761 81.5982L133.945 91.3665L129.253 73.6829Z" fill="#69F0AE"/>
<path d="M150.795 81.2519C154.563 80.2519 157.176 77.7746 156.631 75.7186C156.085 73.6626 152.588 72.8065 148.819 73.8064C145.051 74.8063 142.438 77.2837 142.983 79.3397C143.529 81.3957 147.026 82.2518 150.795 81.2519Z" fill="white"/>
<path d="M126.315 110.148L132.884 91.0248L172.04 104.477L165.471 123.6L126.315 110.148Z" fill="url(#paint5_linear_122_548)"/>
<path d="M133.083 91.4304L171.633 104.674L165.272 123.191L126.722 109.948L133.083 91.4304Z" fill="white"/>
<path d="M134.14 92.4739L170.163 104.849L164.219 122.152L128.196 109.777L134.14 92.4739Z" fill="#69F0AE"/>
<path d="M155.757 109.401C156.448 107.389 154.019 104.731 150.331 103.465C146.644 102.198 143.094 102.802 142.403 104.813C141.712 106.825 144.141 109.483 147.828 110.75C151.516 112.017 155.065 111.413 155.757 109.401Z" fill="white"/>
<path d="M176.159 83.2192H134.757V103.439H176.159V83.2192Z" fill="url(#paint6_linear_122_548)"/>
<path d="M175.841 83.541H135.079V103.12H175.841V83.541Z" fill="white"/>
<path d="M174.504 84.1814H136.415V102.477H174.504V84.1814Z" fill="#69F0AE"/>
<path d="M155.299 97.02C159.198 97.02 162.359 95.2956 162.359 93.1684C162.359 91.0413 159.198 89.3169 155.299 89.3169C151.4 89.3169 148.239 91.0413 148.239 93.1684C148.239 95.2956 151.4 97.02 155.299 97.02Z" fill="white"/>
<path d="M154.537 31.9341H31.934V154.538H154.537V31.9341Z" fill="white"/>
<path d="M93.2371 116.346C106 116.346 116.346 106 116.346 93.2372C116.346 80.4743 106 70.1279 93.2371 70.1279C80.4742 70.1279 70.1278 80.4743 70.1278 93.2372C70.1278 106 80.4742 116.346 93.2371 116.346Z" fill="url(#paint7_linear_122_548)"/>
<path d="M93.2371 115.384C105.469 115.384 115.384 105.469 115.384 93.2372C115.384 81.0057 105.469 71.0901 93.2371 71.0901C81.0056 71.0901 71.09 81.0057 71.09 93.2372C71.09 105.469 81.0056 115.384 93.2371 115.384Z" fill="#FAFAFA"/>
<path d="M83.1285 137.366H76.3876V144.426H83.1285V137.366Z" fill="url(#paint8_linear_122_548)"/>
<path d="M92.1155 137.366H85.3746V144.426H92.1155V137.366Z" fill="url(#paint9_linear_122_548)"/>
<path d="M101.1 137.366H94.3588V144.426H101.1V137.366Z" fill="url(#paint10_linear_122_548)"/>
<path d="M110.087 137.366H103.346V144.426H110.087V137.366Z" fill="url(#paint11_linear_122_548)"/>
<path d="M82.9663 137.688H76.5471V144.107H82.9663V137.688Z" fill="#2A46FF"/>
<path opacity="0.7" d="M91.9533 137.688H85.534V144.107H91.9533V137.688Z" fill="#2A46FF"/>
<path opacity="0.5" d="M100.94 137.688H94.521V144.107H100.94V137.688Z" fill="#2A46FF"/>
<path opacity="0.3" d="M109.927 137.688H103.508V144.107H109.927V137.688Z" fill="#2A46FF"/>
<path d="M102.508 79.1577L103.559 79.8941L100.983 83.5738L99.9311 82.8374L102.508 79.1577Z" fill="#2A46FF"/>
<path d="M107.316 102.506L106.58 103.558L102.9 100.981L103.637 99.9295L107.316 102.506Z" fill="#2A46FF"/>
<path d="M83.9654 107.315L82.9138 106.579L85.4903 102.899L86.542 103.635L83.9654 107.315Z" fill="#2A46FF"/>
<path d="M79.1591 83.9668L79.8955 82.9151L83.5752 85.4917L82.8388 86.5434L79.1591 83.9668Z" fill="#2A46FF"/>
<path opacity="0.2" d="M102.496 79.1201L103.548 79.8565L100.971 83.5362L99.9194 82.7998L102.496 79.1201Z" fill="black"/>
<path opacity="0.2" d="M107.306 102.469L106.569 103.521L102.89 100.944L103.626 99.8927L107.306 102.469Z" fill="black"/>
<path opacity="0.2" d="M83.9567 107.276L82.905 106.54L85.4816 102.86L86.5332 103.597L83.9567 107.276Z" fill="black"/>
<path opacity="0.2" d="M79.1488 83.929L79.8852 82.8773L83.5649 85.4538L82.8285 86.5055L79.1488 83.929Z" fill="black"/>
<path d="M93.2371 107.197C100.947 107.197 107.197 100.947 107.197 93.237C107.197 85.527 100.947 79.2769 93.2371 79.2769C85.5271 79.2769 79.277 85.527 79.277 93.237C79.277 100.947 85.5271 107.197 93.2371 107.197Z" fill="url(#paint12_linear_122_548)"/>
<path d="M93.2371 106.397C100.505 106.397 106.397 100.505 106.397 93.237C106.397 85.9689 100.505 80.0769 93.2371 80.0769C85.969 80.0769 80.077 85.9689 80.077 93.237C80.077 100.505 85.969 106.397 93.2371 106.397Z" fill="#2A46FF"/>
<path opacity="0.2" d="M82.4852 95.0021C82.48 90.3056 84.9786 85.9625 89.0411 83.6061C93.1037 81.2497 98.1143 81.2375 102.188 83.5739C98.5226 80.0461 93.1517 78.9478 88.3954 80.7532C83.639 82.5586 80.3497 86.9444 79.9483 92.016C79.5468 97.0876 82.1052 101.936 86.5182 104.467C83.9409 101.993 82.4843 98.5748 82.4852 95.0021Z" fill="white"/>
<path d="M37.2316 81.523H26.9608V55.879C26.9623 55.3289 27.4087 54.8838 27.9588 54.8838H36.2364C36.7876 54.8838 37.2344 55.3306 37.2344 55.8817L37.2316 81.523Z" fill="url(#paint13_linear_122_548)"/>
<path d="M36.1842 131.912H28.0082C27.4298 131.912 26.9608 131.443 26.9608 130.865V105.273H37.2316V130.859C37.2331 131.138 37.1234 131.406 36.9268 131.603C36.7302 131.801 36.4629 131.912 36.1842 131.912Z" fill="url(#paint14_linear_122_548)"/>
<path d="M28.1512 55.2026H36.0385C36.5198 55.2026 36.91 55.5928 36.91 56.0741V80.8796H27.2879V56.0824C27.2858 55.8512 27.3755 55.6287 27.5374 55.4637C27.6993 55.2987 27.9201 55.2048 28.1512 55.2026Z" fill="#FAFAFA"/>
<path d="M27.2797 105.594H36.9017V130.977C36.9017 131.138 36.7712 131.269 36.6103 131.269H27.5739C27.4129 131.269 27.2825 131.138 27.2825 130.977V105.594H27.2797Z" fill="#FAFAFA"/>
</g>
<defs>
<linearGradient id="paint0_linear_122_548" x1="844.091" y1="1817.35" x2="844.091" y2="185.19" gradientUnits="userSpaceOnUse">
<stop stop-color="#808080" stop-opacity="0.25"/>
<stop offset="0.54" stop-color="#808080" stop-opacity="0.12"/>
<stop offset="1" stop-color="#808080" stop-opacity="0.1"/>
</linearGradient>
<linearGradient id="paint1_linear_122_548" x1="708.97" y1="-18333.8" x2="708.97" y2="185.19" gradientUnits="userSpaceOnUse">
<stop stop-color="#808080" stop-opacity="0.25"/>
<stop offset="0.54" stop-color="#808080" stop-opacity="0.12"/>
<stop offset="1" stop-color="#808080" stop-opacity="0.1"/>
</linearGradient>
<linearGradient id="paint2_linear_122_548" x1="9323.71" y1="18743.6" x2="9323.71" y2="0" gradientUnits="userSpaceOnUse">
<stop stop-color="#808080" stop-opacity="0.25"/>
<stop offset="0.54" stop-color="#808080" stop-opacity="0.12"/>
<stop offset="1" stop-color="#808080" stop-opacity="0.1"/>
</linearGradient>
<linearGradient id="paint3_linear_122_548" x1="6257.5" y1="12612.1" x2="6257.5" y2="30.6501" gradientUnits="userSpaceOnUse">
<stop stop-color="#808080" stop-opacity="0.25"/>
<stop offset="0.54" stop-color="#808080" stop-opacity="0.12"/>
<stop offset="1" stop-color="#808080" stop-opacity="0.1"/>
</linearGradient>
<linearGradient id="paint4_linear_122_548" x1="2646.83" y1="1496.65" x2="2128.27" y2="-457.717" gradientUnits="userSpaceOnUse">
<stop stop-color="#808080" stop-opacity="0.25"/>
<stop offset="0.54" stop-color="#808080" stop-opacity="0.12"/>
<stop offset="1" stop-color="#808080" stop-opacity="0.1"/>
</linearGradient>
<linearGradient id="paint5_linear_122_548" x1="2084.2" y1="782.481" x2="2741.16" y2="-1129.81" gradientUnits="userSpaceOnUse">
<stop stop-color="#808080" stop-opacity="0.25"/>
<stop offset="0.54" stop-color="#808080" stop-opacity="0.12"/>
<stop offset="1" stop-color="#808080" stop-opacity="0.1"/>
</linearGradient>
<linearGradient id="paint6_linear_122_548" x1="2204.86" y1="2105.21" x2="2204.86" y2="83.2192" gradientUnits="userSpaceOnUse">
<stop stop-color="#808080" stop-opacity="0.25"/>
<stop offset="0.54" stop-color="#808080" stop-opacity="0.12"/>
<stop offset="1" stop-color="#808080" stop-opacity="0.1"/>
</linearGradient>
<linearGradient id="paint7_linear_122_548" x1="2381.06" y1="4691.98" x2="2381.06" y2="70.1279" gradientUnits="userSpaceOnUse">
<stop stop-color="#808080" stop-opacity="0.25"/>
<stop offset="0.54" stop-color="#808080" stop-opacity="0.12"/>
<stop offset="1" stop-color="#808080" stop-opacity="0.1"/>
</linearGradient>
<linearGradient id="paint8_linear_122_548" x1="413.158" y1="843.621" x2="413.158" y2="137.366" gradientUnits="userSpaceOnUse">
<stop stop-color="#808080" stop-opacity="0.25"/>
<stop offset="0.54" stop-color="#808080" stop-opacity="0.12"/>
<stop offset="1" stop-color="#808080" stop-opacity="0.1"/>
</linearGradient>
<linearGradient id="paint9_linear_122_548" x1="422.144" y1="843.621" x2="422.144" y2="137.366" gradientUnits="userSpaceOnUse">
<stop stop-color="#808080" stop-opacity="0.25"/>
<stop offset="0.54" stop-color="#808080" stop-opacity="0.12"/>
<stop offset="1" stop-color="#808080" stop-opacity="0.1"/>
</linearGradient>
<linearGradient id="paint10_linear_122_548" x1="431.403" y1="843.621" x2="431.403" y2="137.366" gradientUnits="userSpaceOnUse">
<stop stop-color="#808080" stop-opacity="0.25"/>
<stop offset="0.54" stop-color="#808080" stop-opacity="0.12"/>
<stop offset="1" stop-color="#808080" stop-opacity="0.1"/>
</linearGradient>
<linearGradient id="paint11_linear_122_548" x1="440.391" y1="843.621" x2="440.391" y2="137.366" gradientUnits="userSpaceOnUse">
<stop stop-color="#808080" stop-opacity="0.25"/>
<stop offset="0.54" stop-color="#808080" stop-opacity="0.12"/>
<stop offset="1" stop-color="#808080" stop-opacity="0.1"/>
</linearGradient>
<linearGradient id="paint12_linear_122_548" x1="1475.29" y1="2871.3" x2="1475.29" y2="79.0019" gradientUnits="userSpaceOnUse">
<stop stop-color="#808080" stop-opacity="0.25"/>
<stop offset="0.54" stop-color="#808080" stop-opacity="0.12"/>
<stop offset="1" stop-color="#808080" stop-opacity="0.1"/>
</linearGradient>
<linearGradient id="paint13_linear_122_548" x1="540.5" y1="2718.8" x2="540.5" y2="54.8838" gradientUnits="userSpaceOnUse">
<stop stop-color="#808080" stop-opacity="0.25"/>
<stop offset="0.54" stop-color="#808080" stop-opacity="0.12"/>
<stop offset="1" stop-color="#808080" stop-opacity="0.1"/>
</linearGradient>
<linearGradient id="paint14_linear_122_548" x1="540.501" y1="2769.19" x2="540.501" y2="105.273" gradientUnits="userSpaceOnUse">
<stop stop-color="#808080" stop-opacity="0.25"/>
<stop offset="0.54" stop-color="#808080" stop-opacity="0.12"/>
<stop offset="1" stop-color="#808080" stop-opacity="0.1"/>
</linearGradient>
<clipPath id="clip0_122_548">
<rect width="187" height="202" fill="white"/>
</clipPath>
</defs>
</svg>
