<svg width="280" height="202" viewBox="0 0 280 202" fill="none" xmlns="http://www.w3.org/2000/svg">
<g clip-path="url(#clip0_122_198)">
<path d="M140 201.064C217.32 201.064 280 193.445 280 184.047C280 174.649 217.32 167.03 140 167.03C62.6801 167.03 0 174.649 0 184.047C0 193.445 62.6801 201.064 140 201.064Z" fill="#F5F6FA"/>
<path d="M239.549 192.388C239.549 192.388 246.851 183.097 246.261 173.879C245.988 170.014 246.977 166.164 249.078 162.909C250.088 161.372 251.236 159.93 252.509 158.602" stroke="#535461" stroke-width="1.49333"/>
<path d="M252.172 152.79C251.657 154.081 252.5 158.755 252.5 158.755C252.5 158.755 256.329 155.945 256.844 154.655C257.358 153.365 256.729 151.902 255.439 151.388C254.15 150.873 252.687 151.501 252.172 152.79Z" fill="#2A46FF"/>
<path d="M245.458 158.397C245.727 159.76 248.975 163.225 248.975 163.225C248.975 163.225 250.663 158.785 250.394 157.422C250.219 156.541 249.588 155.819 248.738 155.529C247.887 155.239 246.946 155.424 246.27 156.016C245.593 156.608 245.284 157.515 245.458 158.397Z" fill="#2A46FF"/>
<path d="M240.754 170.678C241.674 171.718 246.227 173.07 246.227 173.07C246.227 173.07 245.442 168.386 244.522 167.345C243.927 166.671 243.017 166.367 242.137 166.546C241.256 166.725 240.537 167.36 240.252 168.212C239.967 169.065 240.158 170.005 240.754 170.678Z" fill="#2A46FF"/>
<path d="M239.286 180.772C240.018 181.953 244.277 184.054 244.277 184.054C244.277 184.054 244.295 179.305 243.564 178.124C243.091 177.359 242.246 176.905 241.348 176.932C240.449 176.96 239.633 177.464 239.208 178.257C238.783 179.049 238.813 180.007 239.286 180.772Z" fill="#2A46FF"/>
<path d="M253.781 165.432C252.497 165.962 247.814 165.173 247.814 165.173C247.814 165.173 250.578 161.311 251.863 160.781C253.147 160.252 254.617 160.863 255.147 162.147C255.677 163.432 255.065 164.902 253.781 165.432Z" fill="#2A46FF"/>
<path d="M251.916 177.215C250.532 177.336 246.299 175.182 246.299 175.182C246.299 175.182 250.093 172.324 251.477 172.203C252.372 172.124 253.242 172.529 253.758 173.265C254.275 174.001 254.358 174.957 253.978 175.772C253.598 176.587 252.812 177.137 251.916 177.215Z" fill="#2A46FF"/>
<path d="M248.531 188.418C247.188 188.772 242.652 187.364 242.652 187.364C242.652 187.364 245.908 183.906 247.251 183.553C248.595 183.199 249.97 184.002 250.324 185.346C250.677 186.689 249.875 188.065 248.531 188.418Z" fill="#2A46FF"/>
<path opacity="0.25" d="M252.172 152.79C251.657 154.081 252.5 158.755 252.5 158.755C252.5 158.755 256.329 155.945 256.844 154.655C257.358 153.365 256.729 151.902 255.439 151.388C254.15 150.873 252.687 151.501 252.172 152.79Z" fill="black"/>
<path opacity="0.25" d="M245.458 158.397C245.727 159.76 248.975 163.225 248.975 163.225C248.975 163.225 250.663 158.785 250.394 157.422C250.219 156.541 249.588 155.819 248.738 155.529C247.887 155.239 246.946 155.424 246.27 156.016C245.593 156.608 245.284 157.515 245.458 158.397Z" fill="black"/>
<path opacity="0.25" d="M240.754 170.678C241.674 171.718 246.227 173.07 246.227 173.07C246.227 173.07 245.442 168.386 244.522 167.345C243.927 166.671 243.017 166.367 242.137 166.546C241.256 166.725 240.537 167.36 240.252 168.212C239.967 169.065 240.158 170.005 240.754 170.678Z" fill="black"/>
<path opacity="0.25" d="M239.286 180.772C240.018 181.953 244.277 184.054 244.277 184.054C244.277 184.054 244.295 179.305 243.564 178.124C243.091 177.359 242.246 176.905 241.348 176.932C240.449 176.96 239.633 177.464 239.208 178.257C238.783 179.049 238.813 180.007 239.286 180.772Z" fill="black"/>
<path opacity="0.25" d="M253.781 165.432C252.497 165.962 247.814 165.173 247.814 165.173C247.814 165.173 250.578 161.311 251.863 160.781C253.147 160.252 254.617 160.863 255.147 162.147C255.677 163.432 255.065 164.902 253.781 165.432Z" fill="black"/>
<path opacity="0.25" d="M251.916 177.215C250.532 177.336 246.299 175.182 246.299 175.182C246.299 175.182 250.093 172.324 251.477 172.203C252.372 172.124 253.242 172.529 253.758 173.265C254.275 174.001 254.358 174.957 253.978 175.772C253.598 176.587 252.812 177.137 251.916 177.215Z" fill="black"/>
<path opacity="0.25" d="M248.531 188.418C247.188 188.772 242.652 187.364 242.652 187.364C242.652 187.364 245.908 183.906 247.251 183.553C248.595 183.199 249.97 184.002 250.324 185.346C250.677 186.689 249.875 188.065 248.531 188.418Z" fill="black"/>
<path d="M239.611 192.001C239.611 192.001 250.051 186.466 253.247 177.799C254.564 174.155 257.028 171.037 260.268 168.912C261.814 167.916 263.448 167.063 265.15 166.365" stroke="#535461" stroke-width="1.49333"/>
<path d="M267.197 160.915C266.203 161.886 265.08 166.501 265.08 166.501C265.08 166.501 269.719 165.484 270.713 164.513C271.707 163.542 271.725 161.95 270.754 160.956C269.783 159.962 268.19 159.944 267.197 160.915Z" fill="#2A46FF"/>
<path d="M258.787 163.32C258.481 164.675 260.046 169.159 260.046 169.159C260.046 169.159 263.388 165.784 263.694 164.429C263.892 163.553 263.608 162.637 262.948 162.027C262.288 161.417 261.352 161.206 260.494 161.473C259.636 161.739 258.985 162.444 258.787 163.32Z" fill="#2A46FF"/>
<path d="M249.51 172.641C249.929 173.966 253.544 177.046 253.544 177.046C253.544 177.046 254.725 172.446 254.305 171.122C254.034 170.265 253.326 169.618 252.448 169.425C251.571 169.232 250.657 169.521 250.05 170.185C249.444 170.848 249.238 171.785 249.51 172.641Z" fill="#2A46FF"/>
<path d="M244.078 181.274C244.268 182.651 247.31 186.298 247.31 186.298C247.31 186.298 249.252 181.963 249.062 180.587C248.939 179.697 248.351 178.94 247.518 178.601C246.686 178.262 245.736 178.393 245.026 178.945C244.317 179.496 243.955 180.384 244.078 181.274Z" fill="#2A46FF"/>
<path d="M263.546 173.125C262.157 173.088 258.195 170.469 258.195 170.469C258.195 170.469 262.287 168.059 263.676 168.095C265.065 168.131 266.161 169.286 266.125 170.675C266.089 172.064 264.934 173.161 263.546 173.125Z" fill="#2A46FF"/>
<path d="M257.065 183.141C255.751 182.691 252.754 179.006 252.754 179.006C252.754 179.006 257.38 177.931 258.695 178.381C260.009 178.831 260.71 180.261 260.26 181.576C259.81 182.89 258.38 183.591 257.065 183.141Z" fill="#2A46FF"/>
<path d="M249.431 192.012C248.06 191.79 244.483 188.665 244.483 188.665C244.483 188.665 248.861 186.824 250.233 187.045C251.604 187.266 252.537 188.558 252.315 189.929C252.094 191.301 250.803 192.233 249.431 192.012Z" fill="#2A46FF"/>
<path d="M159.57 23.8119C145.736 23.3316 132.56 18.8656 119.978 13.9794C107.397 9.0933 94.9342 3.67986 81.4315 1.09077C72.7469 -0.574484 62.8152 -0.810095 55.8175 3.84624C49.0837 8.32702 46.9078 16.0618 45.738 23.2387C44.8578 28.6383 44.3404 34.3213 46.752 39.3763C48.4262 42.8858 51.3991 45.8358 53.4549 49.1974C60.6083 60.8943 55.5522 75.3179 47.8 86.7389C44.1637 92.0963 39.9458 97.2073 37.1397 102.91C34.3337 108.613 33.0356 115.148 35.4906 120.966C37.924 126.732 43.723 131.063 50.0047 134.11C62.7631 140.297 77.7975 142.068 92.458 143.071C124.911 145.291 157.537 144.33 190.076 143.367C202.118 143.011 214.212 142.65 226.059 140.788C232.637 139.754 239.429 138.112 244.205 134.15C250.268 129.121 251.77 120.604 247.708 114.297C240.893 103.719 222.052 101.091 217.289 89.7384C214.667 83.4893 217.359 76.5286 221.17 70.733C229.343 58.3003 243.043 47.393 243.764 33.1822C244.26 23.422 237.674 13.6474 227.491 9.02946C216.817 4.18893 202.016 4.79782 194.142 12.8105C186.034 21.0613 171.784 24.236 159.57 23.8119Z" fill="#F5F6FA"/>
<path d="M135.883 176.415C141.078 176.415 145.289 171.945 145.289 166.43C145.289 160.916 141.078 156.446 135.883 156.446C130.689 156.446 126.477 160.916 126.477 166.43C126.477 171.945 130.689 176.415 135.883 176.415Z" fill="#FBD56F"/>
<path opacity="0.1" d="M135.883 176.415C141.078 176.415 145.289 171.945 145.289 166.43C145.289 160.916 141.078 156.446 135.883 156.446C130.689 156.446 126.477 160.916 126.477 166.43C126.477 171.945 130.689 176.415 135.883 176.415Z" fill="black"/>
<path d="M137.507 176.415C142.702 176.415 146.913 172.044 146.913 166.653C146.913 161.262 142.702 156.891 137.507 156.891C132.312 156.891 128.101 161.262 128.101 166.653C128.101 172.044 132.312 176.415 137.507 176.415Z" fill="#FBD56F"/>
<path d="M141.317 175.499L140.338 174.955C140.338 174.955 139.88 176.864 140.03 178.225C140.06 178.508 140.264 178.742 140.54 178.811C142.79 179.37 153.518 181.751 160.895 178.397C161.112 178.298 161.261 178.091 161.287 177.853C161.377 177.017 161.057 175.291 160.929 174.955C160.654 174.231 141.317 175.499 141.317 175.499Z" fill="#FBD56F"/>
<path opacity="0.1" d="M141.317 175.499L140.338 174.955C140.338 174.955 139.88 176.864 140.03 178.225C140.06 178.508 140.264 178.742 140.54 178.811C142.79 179.37 153.518 181.751 160.895 178.397C161.112 178.298 161.261 178.091 161.287 177.853C161.377 177.017 161.057 175.291 160.929 174.955C160.654 174.231 141.317 175.499 141.317 175.499Z" fill="black"/>
<path d="M150.634 177.275C156.32 177.275 160.929 176.236 160.929 174.955C160.929 173.673 156.32 172.634 150.634 172.634C144.948 172.634 140.338 173.673 140.338 174.955C140.338 176.236 144.948 177.275 150.634 177.275Z" fill="#FBD56F"/>
<path d="M145.25 172.075L144.272 171.53C144.272 171.53 143.814 173.44 143.963 174.801C143.994 175.084 144.197 175.318 144.473 175.387C146.724 175.946 157.451 178.327 164.828 174.973C165.046 174.874 165.195 174.667 165.22 174.429C165.311 173.593 164.99 171.867 164.862 171.53C164.587 170.807 145.25 172.075 145.25 172.075Z" fill="#FBD56F"/>
<path opacity="0.1" d="M145.25 172.075L144.272 171.53C144.272 171.53 143.814 173.44 143.963 174.801C143.994 175.084 144.197 175.318 144.473 175.387C146.724 175.946 157.451 178.327 164.828 174.973C165.046 174.874 165.195 174.667 165.22 174.429C165.311 173.593 164.99 171.867 164.862 171.53C164.587 170.807 145.25 172.075 145.25 172.075Z" fill="black"/>
<path d="M154.567 173.851C160.253 173.851 164.862 172.812 164.862 171.53C164.862 170.249 160.253 169.21 154.567 169.21C148.881 169.21 144.272 170.249 144.272 171.53C144.272 172.812 148.881 173.851 154.567 173.851Z" fill="#FBD56F"/>
<path d="M148.727 167.575L147.749 167.03C147.749 167.03 147.291 168.94 147.441 170.301C147.471 170.584 147.674 170.817 147.95 170.887C150.201 171.445 160.929 173.827 168.305 170.473C168.523 170.373 168.672 170.167 168.698 169.929C168.788 169.092 168.468 167.366 168.34 167.03C168.065 166.307 148.727 167.575 148.727 167.575Z" fill="#FBD56F"/>
<path opacity="0.1" d="M148.727 167.575L147.749 167.03C147.749 167.03 147.291 168.94 147.441 170.301C147.471 170.584 147.674 170.817 147.95 170.887C150.201 171.445 160.929 173.827 168.305 170.473C168.523 170.373 168.672 170.167 168.698 169.929C168.788 169.092 168.468 167.366 168.34 167.03C168.065 166.307 148.727 167.575 148.727 167.575Z" fill="black"/>
<path d="M158.044 169.351C163.73 169.351 168.34 168.312 168.34 167.03C168.34 165.749 163.73 164.709 158.044 164.709C152.358 164.709 147.749 165.749 147.749 167.03C147.749 168.312 152.358 169.351 158.044 169.351Z" fill="#FBD56F"/>
<path d="M144.876 162.89L143.898 162.346C143.898 162.346 143.44 164.255 143.59 165.616C143.62 165.899 143.824 166.133 144.099 166.202C146.35 166.761 157.078 169.142 164.455 165.788C164.672 165.689 164.821 165.482 164.847 165.244C164.937 164.408 164.617 162.682 164.489 162.346C164.214 161.622 144.876 162.89 144.876 162.89Z" fill="#FBD56F"/>
<path opacity="0.1" d="M144.876 162.89L143.898 162.346C143.898 162.346 143.44 164.255 143.59 165.616C143.62 165.899 143.824 166.133 144.099 166.202C146.35 166.761 157.078 169.142 164.455 165.788C164.672 165.689 164.821 165.482 164.847 165.244C164.937 164.408 164.617 162.682 164.489 162.346C164.214 161.622 144.876 162.89 144.876 162.89Z" fill="black"/>
<path d="M154.193 164.666C159.879 164.666 164.489 163.627 164.489 162.346C164.489 161.064 159.879 160.025 154.193 160.025C148.507 160.025 143.898 161.064 143.898 162.346C143.898 163.627 148.507 164.666 154.193 164.666Z" fill="#FBD56F"/>
<path d="M153.54 159.131L152.561 158.586C152.561 158.586 152.104 160.496 152.253 161.857C152.283 162.14 152.487 162.373 152.763 162.442C155.013 163.001 165.741 165.383 173.118 162.029C173.335 161.929 173.484 161.723 173.51 161.485C173.6 160.648 173.28 158.922 173.152 158.586C172.877 157.862 153.54 159.131 153.54 159.131Z" fill="#FBD56F"/>
<path opacity="0.1" d="M153.54 159.131L152.561 158.586C152.561 158.586 152.104 160.496 152.253 161.857C152.283 162.14 152.487 162.373 152.763 162.442C155.013 163.001 165.741 165.383 173.118 162.029C173.335 161.929 173.484 161.723 173.51 161.485C173.6 160.648 173.28 158.922 173.152 158.586C172.877 157.862 153.54 159.131 153.54 159.131Z" fill="black"/>
<path d="M162.857 160.907C168.543 160.907 173.152 159.868 173.152 158.586C173.152 157.304 168.543 156.265 162.857 156.265C157.171 156.265 152.561 157.304 152.561 158.586C152.561 159.868 157.171 160.907 162.857 160.907Z" fill="#FBD56F"/>
<path d="M147.686 156.604L146.708 156.059C146.708 156.059 146.25 157.969 146.4 159.33C146.43 159.612 146.634 159.846 146.909 159.915C149.16 160.474 159.888 162.856 167.265 159.502C167.482 159.402 167.631 159.195 167.657 158.958C167.747 158.121 167.427 156.395 167.299 156.059C167.024 155.335 147.686 156.604 147.686 156.604Z" fill="#FBD56F"/>
<path opacity="0.1" d="M147.686 156.604L146.708 156.059C146.708 156.059 146.25 157.969 146.4 159.33C146.43 159.612 146.634 159.846 146.909 159.915C149.16 160.474 159.888 162.856 167.265 159.502C167.482 159.402 167.631 159.195 167.657 158.958C167.747 158.121 167.427 156.395 167.299 156.059C167.024 155.335 147.686 156.604 147.686 156.604Z" fill="black"/>
<path d="M157.003 158.38C162.689 158.38 167.299 157.341 167.299 156.059C167.299 154.777 162.689 153.738 157.003 153.738C151.317 153.738 146.708 154.777 146.708 156.059C146.708 157.341 151.317 158.38 157.003 158.38Z" fill="#FBD56F"/>
<path d="M151.594 151.726L150.616 151.181C150.616 151.181 150.158 153.091 150.308 154.452C150.338 154.734 150.541 154.968 150.817 155.037C153.068 155.596 163.796 157.978 171.172 154.623C171.39 154.524 171.539 154.317 171.564 154.079C171.655 153.243 171.335 151.517 171.207 151.181C170.932 150.457 151.594 151.726 151.594 151.726Z" fill="#FBD56F"/>
<path opacity="0.1" d="M151.594 151.726L150.616 151.181C150.616 151.181 150.158 153.091 150.308 154.452C150.338 154.734 150.541 154.968 150.817 155.037C153.068 155.596 163.796 157.978 171.172 154.623C171.39 154.524 171.539 154.317 171.564 154.079C171.655 153.243 171.335 151.517 171.207 151.181C170.932 150.457 151.594 151.726 151.594 151.726Z" fill="black"/>
<path d="M160.911 153.502C166.597 153.502 171.207 152.463 171.207 151.181C171.207 149.899 166.597 148.86 160.911 148.86C155.225 148.86 150.616 149.899 150.616 151.181C150.616 152.463 155.225 153.502 160.911 153.502Z" fill="#FBD56F"/>
<path d="M153.522 145.935L152.543 145.391C152.543 145.391 152.086 147.3 152.235 148.661C152.266 148.944 152.469 149.178 152.745 149.247C154.996 149.806 165.723 152.187 173.1 148.833C173.318 148.734 173.467 148.527 173.492 148.289C173.583 147.453 173.262 145.727 173.134 145.391C172.859 144.667 153.522 145.935 153.522 145.935Z" fill="#FBD56F"/>
<path opacity="0.1" d="M153.522 145.935L152.543 145.391C152.543 145.391 152.086 147.3 152.235 148.661C152.266 148.944 152.469 149.178 152.745 149.247C154.996 149.806 165.723 152.187 173.1 148.833C173.318 148.734 173.467 148.527 173.492 148.289C173.583 147.453 173.262 145.727 173.134 145.391C172.859 144.667 153.522 145.935 153.522 145.935Z" fill="black"/>
<path d="M162.839 147.711C168.525 147.711 173.134 146.672 173.134 145.391C173.134 144.109 168.525 143.07 162.839 143.07C157.153 143.07 152.543 144.109 152.543 145.391C152.543 146.672 157.153 147.711 162.839 147.711Z" fill="#FBD56F"/>
<path d="M170.902 176.842L169.923 176.298C169.923 176.298 169.466 178.207 169.615 179.568C169.645 179.851 169.849 180.085 170.125 180.154C172.375 180.713 183.103 183.094 190.48 179.74C190.697 179.641 190.846 179.434 190.872 179.196C190.962 178.36 190.642 176.634 190.514 176.298C190.239 175.574 170.902 176.842 170.902 176.842Z" fill="#FBD56F"/>
<path opacity="0.1" d="M170.902 176.842L169.923 176.298C169.923 176.298 169.466 178.207 169.615 179.568C169.645 179.851 169.849 180.085 170.125 180.154C172.375 180.713 183.103 183.094 190.48 179.74C190.697 179.641 190.846 179.434 190.872 179.196C190.962 178.36 190.642 176.634 190.514 176.298C190.239 175.574 170.902 176.842 170.902 176.842Z" fill="black"/>
<path d="M180.219 178.618C185.905 178.618 190.514 177.579 190.514 176.298C190.514 175.016 185.905 173.977 180.219 173.977C174.533 173.977 169.923 175.016 169.923 176.298C169.923 177.579 174.533 178.618 180.219 178.618Z" fill="#FBD56F"/>
<path d="M174.379 172.342L173.401 171.797C173.401 171.797 172.943 173.707 173.092 175.068C173.123 175.351 173.326 175.585 173.602 175.654C175.853 176.213 186.58 178.594 193.957 175.24C194.175 175.14 194.324 174.934 194.349 174.696C194.44 173.859 194.119 172.134 193.991 171.797C193.716 171.074 174.379 172.342 174.379 172.342Z" fill="#FBD56F"/>
<path opacity="0.1" d="M174.379 172.342L173.401 171.797C173.401 171.797 172.943 173.707 173.092 175.068C173.123 175.351 173.326 175.585 173.602 175.654C175.853 176.213 186.58 178.594 193.957 175.24C194.175 175.14 194.324 174.934 194.349 174.696C194.44 173.859 194.119 172.134 193.991 171.797C193.716 171.074 174.379 172.342 174.379 172.342Z" fill="black"/>
<path d="M183.696 174.118C189.382 174.118 193.992 173.079 193.992 171.797C193.992 170.516 189.382 169.477 183.696 169.477C178.01 169.477 173.401 170.516 173.401 171.797C173.401 173.079 178.01 174.118 183.696 174.118Z" fill="#FBD56F"/>
<path d="M170.528 167.657L169.55 167.112C169.55 167.112 169.092 169.022 169.242 170.383C169.272 170.666 169.475 170.9 169.751 170.969C172.002 171.528 182.729 173.909 190.106 170.555C190.324 170.456 190.473 170.249 190.498 170.011C190.589 169.175 190.268 167.449 190.141 167.113C189.865 166.389 170.528 167.657 170.528 167.657Z" fill="#FBD56F"/>
<path opacity="0.1" d="M170.528 167.657L169.55 167.112C169.55 167.112 169.092 169.022 169.242 170.383C169.272 170.666 169.475 170.9 169.751 170.969C172.002 171.528 182.729 173.909 190.106 170.555C190.324 170.456 190.473 170.249 190.498 170.011C190.589 169.175 190.268 167.449 190.141 167.113C189.865 166.389 170.528 167.657 170.528 167.657Z" fill="black"/>
<path d="M179.845 169.433C185.531 169.433 190.141 168.394 190.141 167.112C190.141 165.831 185.531 164.792 179.845 164.792C174.159 164.792 169.55 165.831 169.55 167.112C169.55 168.394 174.159 169.433 179.845 169.433Z" fill="#FBD56F"/>
<path d="M179.191 163.898L178.213 163.353C178.213 163.353 177.755 165.263 177.905 166.624C177.935 166.906 178.138 167.14 178.414 167.209C180.665 167.768 191.393 170.15 198.769 166.795C198.987 166.696 199.136 166.489 199.161 166.251C199.252 165.415 198.932 163.689 198.804 163.353C198.529 162.629 179.191 163.898 179.191 163.898Z" fill="#FBD56F"/>
<path opacity="0.1" d="M179.191 163.898L178.213 163.353C178.213 163.353 177.755 165.263 177.905 166.624C177.935 166.906 178.138 167.14 178.414 167.209C180.665 167.768 191.393 170.15 198.769 166.795C198.987 166.696 199.136 166.489 199.161 166.251C199.252 165.415 198.932 163.689 198.804 163.353C198.529 162.629 179.191 163.898 179.191 163.898Z" fill="black"/>
<path d="M188.508 165.674C194.194 165.674 198.804 164.635 198.804 163.353C198.804 162.071 194.194 161.032 188.508 161.032C182.822 161.032 178.213 162.071 178.213 163.353C178.213 164.635 182.822 165.674 188.508 165.674Z" fill="#FBD56F"/>
<path d="M173.338 161.371L172.36 160.826C172.36 160.826 171.902 162.736 172.051 164.097C172.082 164.38 172.285 164.613 172.561 164.682C174.812 165.241 185.539 167.623 192.916 164.269C193.134 164.169 193.283 163.963 193.308 163.725C193.399 162.888 193.078 161.162 192.951 160.826C192.675 160.102 173.338 161.371 173.338 161.371Z" fill="#FBD56F"/>
<path opacity="0.1" d="M173.338 161.371L172.36 160.826C172.36 160.826 171.902 162.736 172.051 164.097C172.082 164.38 172.285 164.613 172.561 164.682C174.812 165.241 185.539 167.623 192.916 164.269C193.134 164.169 193.283 163.963 193.308 163.725C193.399 162.888 193.078 161.162 192.951 160.826C192.675 160.102 173.338 161.371 173.338 161.371Z" fill="black"/>
<path d="M182.655 163.147C188.341 163.147 192.951 162.108 192.951 160.826C192.951 159.544 188.341 158.505 182.655 158.505C176.969 158.505 172.36 159.544 172.36 160.826C172.36 162.108 176.969 163.147 182.655 163.147Z" fill="#FBD56F"/>
<path d="M177.246 156.493L176.267 155.948C176.267 155.948 175.81 157.858 175.959 159.219C175.99 159.501 176.193 159.735 176.469 159.804C178.72 160.363 189.447 162.745 196.824 159.39C197.042 159.291 197.191 159.084 197.216 158.846C197.307 158.01 196.986 156.284 196.858 155.948C196.583 155.224 177.246 156.493 177.246 156.493Z" fill="#FBD56F"/>
<path opacity="0.1" d="M177.246 156.493L176.267 155.948C176.267 155.948 175.81 157.858 175.959 159.219C175.99 159.501 176.193 159.735 176.469 159.804C178.72 160.363 189.447 162.745 196.824 159.39C197.042 159.291 197.191 159.084 197.216 158.846C197.307 158.01 196.986 156.284 196.858 155.948C196.583 155.224 177.246 156.493 177.246 156.493Z" fill="black"/>
<path d="M186.563 158.269C192.249 158.269 196.858 157.23 196.858 155.948C196.858 154.666 192.249 153.627 186.563 153.627C180.877 153.627 176.267 154.666 176.267 155.948C176.267 157.23 180.877 158.269 186.563 158.269Z" fill="#FBD56F"/>
<path d="M179.173 150.702L178.195 150.158C178.195 150.158 177.737 152.067 177.887 153.428C177.917 153.711 178.121 153.945 178.397 154.014C180.647 154.573 191.375 156.954 198.752 153.6C198.969 153.501 199.118 153.294 199.144 153.056C199.234 152.22 198.914 150.494 198.786 150.158C198.511 149.434 179.173 150.702 179.173 150.702Z" fill="#FBD56F"/>
<path opacity="0.1" d="M179.173 150.702L178.195 150.158C178.195 150.158 177.737 152.067 177.887 153.428C177.917 153.711 178.121 153.945 178.397 154.014C180.647 154.573 191.375 156.954 198.752 153.6C198.969 153.501 199.118 153.294 199.144 153.056C199.234 152.22 198.914 150.494 198.786 150.158C198.511 149.434 179.173 150.702 179.173 150.702Z" fill="black"/>
<path d="M188.491 152.478C194.177 152.478 198.786 151.439 198.786 150.158C198.786 148.876 194.177 147.837 188.491 147.837C182.805 147.837 178.195 148.876 178.195 150.158C178.195 151.439 182.805 152.478 188.491 152.478Z" fill="#FBD56F"/>
<path d="M241.229 190.501C239.795 190.451 239.744 189.895 237.902 188.935C236.862 188.394 235.282 186.821 234.105 185.556C234.011 185.454 233.919 185.355 233.831 185.259C234.142 185.252 234.319 185.249 234.319 185.249C234.319 185.249 233.858 181.208 234.268 180.249C234.677 179.289 234.37 173.582 234.37 173.582C234.37 173.582 234.626 169.238 234.165 168.228C233.705 167.218 234.319 160.753 234.319 160.753C234.319 160.753 234.728 156.915 234.831 149.087C234.933 141.258 230.327 141.006 230.327 141.006C230.327 141.006 229.713 140.958 228.78 140.869C228.69 140.861 228.596 140.852 228.501 140.843C229.105 139.578 229.457 138.632 229.457 138.632C229.457 138.632 228.689 131.309 228.484 130.046C228.279 128.784 227.051 123.581 227.051 123.581C227.051 123.581 226.181 121.359 225.669 119.794C225.157 118.228 223.622 116.41 223.622 116.41C223.622 116.41 220.858 110.955 220.09 110.147C219.734 109.772 219.234 109.3 218.801 108.901C218.723 108.829 218.649 108.76 218.576 108.694C218.692 108.125 218.753 107.546 218.76 106.965C218.76 106.965 215.893 104.137 215.689 103.43C215.484 102.723 212.771 100.096 212.771 100.096C212.771 100.096 211.236 97.2681 209.496 97.2176C208.673 97.171 207.849 97.196 207.031 97.2923C207.388 95.9694 207.811 94.5836 208.19 93.3944C208.233 93.2618 208.274 93.1326 208.315 93.0053C209.706 92.0649 210.797 90.7449 211.459 89.2023C211.496 89.1203 211.528 89.0374 211.561 88.9545C211.58 88.955 211.598 88.958 211.617 88.9578C211.689 88.9569 211.761 88.9504 211.832 88.9382C212.405 88.8399 212.89 88.1929 212.625 87.6824C212.66 87.7411 212.724 87.7762 212.792 87.7741C212.983 87.7677 213.216 87.4915 213.261 87.2485C213.269 87.2063 213.273 87.1637 213.28 87.1214C213.288 87.0686 213.296 87.016 213.303 86.963C213.308 86.9132 213.312 86.8633 213.316 86.8134C213.321 86.7618 213.325 86.7103 213.327 86.6587C213.33 86.6103 213.331 86.5621 213.332 86.5137C213.333 86.458 213.333 86.4024 213.332 86.3468C213.331 86.3022 213.331 86.2578 213.328 86.2133C213.325 86.1456 213.32 86.0781 213.313 86.0105C213.311 85.9828 213.31 85.955 213.307 85.9273L213.307 85.9313C213.277 85.6553 213.222 85.3827 213.142 85.1168C212.859 84.178 212.266 83.247 212.494 82.294C212.497 82.2837 212.501 82.2744 212.504 82.2642L212.504 82.266C212.695 81.5264 213.335 80.9891 213.726 80.3283C213.764 80.2653 213.796 80.2002 213.829 80.135C213.835 80.1231 213.842 80.1117 213.848 80.0997C213.871 80.0505 213.891 80 213.912 79.9499C213.925 79.9176 213.94 79.8858 213.952 79.8532C213.968 79.8091 213.982 79.7643 213.997 79.7196C214.01 79.6789 214.023 79.6384 214.035 79.5973C214.046 79.5577 214.055 79.5176 214.064 79.4776C214.076 79.4294 214.087 79.3813 214.096 79.3326C214.103 79.2977 214.108 79.2626 214.114 79.2275C214.122 79.1723 214.13 79.1171 214.136 79.0615C214.139 79.0314 214.142 79.0013 214.144 78.971C214.149 78.909 214.152 78.847 214.154 78.7847C214.154 78.7598 214.155 78.7349 214.155 78.7099C214.155 78.6418 214.153 78.5738 214.15 78.5057C214.148 78.4853 214.147 78.4649 214.146 78.4444C214.141 78.3719 214.133 78.2996 214.124 78.2274C214.122 78.217 214.122 78.2064 214.12 78.196L214.12 78.1989C214.033 77.5642 213.78 76.9637 213.387 76.4581C212.478 75.3765 211.113 74.7861 209.703 74.8647C209.318 74.9081 208.93 74.9152 208.544 74.886C207.902 74.7918 207.358 74.3837 206.846 73.9892C205.417 72.8885 203.988 71.7877 202.559 70.6869C202.081 70.2714 201.532 69.945 200.939 69.7235C200.333 69.5381 199.607 69.6021 199.158 70.0447C198.355 70.8368 198.866 72.2 198.543 73.2741C198.264 74.2044 197.366 74.8348 196.436 75.1491C195.505 75.4633 194.51 75.5323 193.554 75.7598C193.27 75.8058 193.003 75.9283 192.783 76.114C192.536 76.4145 192.415 76.7999 192.448 77.1878C192.442 78.1391 192.671 79.0771 193.114 79.919C193.294 80.262 193.513 80.6085 193.706 80.96C193.721 80.989 193.737 81.0181 193.752 81.0472C193.774 81.0875 193.795 81.1278 193.816 81.1683C193.849 81.234 193.881 81.2998 193.911 81.3658C193.924 81.3944 193.936 81.423 193.948 81.4516C193.968 81.4984 193.987 81.5452 194.005 81.5922C194.017 81.6221 194.028 81.652 194.038 81.682C194.058 81.7372 194.075 81.7927 194.091 81.8482C194.193 82.1748 194.203 82.5235 194.119 82.8553C193.971 83.3982 193.547 83.8164 193.174 84.2405C192.868 84.5719 192.651 84.9744 192.542 85.4112L192.54 85.4209C192.519 85.5225 192.515 85.6268 192.529 85.7297C192.53 85.7425 192.532 85.7554 192.535 85.7678C192.539 85.7907 192.546 85.8133 192.553 85.8354C192.559 85.8514 192.566 85.8671 192.573 85.8824C192.581 85.9004 192.59 85.9179 192.6 85.9347C192.618 85.9629 192.64 85.9887 192.665 86.0115C192.677 86.021 192.689 86.0299 192.701 86.0381C192.722 86.0535 192.744 86.067 192.767 86.0785C192.781 86.0854 192.795 86.092 192.81 86.0978C192.845 86.1104 192.88 86.12 192.915 86.1264C192.925 86.1282 192.934 86.1314 192.944 86.1329C192.999 86.1399 193.054 86.1423 193.109 86.1399C193.125 86.1394 193.142 86.1374 193.159 86.1362C193.212 86.1322 193.264 86.1256 193.316 86.1163C193.335 86.113 193.354 86.11 193.374 86.1058C193.449 86.0903 193.528 86.0711 193.615 86.0441C193.903 85.9572 194.182 85.8466 194.452 85.7135C194.451 85.7442 194.449 85.7746 194.449 85.8054C194.449 85.8585 194.449 85.914 194.454 85.9671C194.469 86.9575 194.656 87.9378 195.007 88.8639C195.556 90.3072 196.477 91.5796 197.676 92.5518C197.661 92.6391 197.645 92.7266 197.627 92.8146C197.381 94.0257 196.865 95.2409 196.546 95.1469C196.235 95.0775 195.917 95.0426 195.597 95.0429C195.501 95.04 195.407 95.0387 195.318 95.0382C195.029 95.0047 194.737 95.0044 194.448 95.0378C194.319 95.0467 194.189 95.0288 194.067 94.9853C193.24 94.7247 192.361 94.6754 191.51 94.8419C189.74 95.2045 187.048 95.8681 186.31 96.6621C185.184 97.8742 183.546 99.0358 181.704 104.086C181.704 104.086 180.782 107.167 180.066 107.571C180.224 107.489 180.386 107.416 180.552 107.353C180.457 107.52 180.326 107.663 180.168 107.773C180.428 107.641 180.697 107.528 180.974 107.437C180.415 110.728 181.243 120.14 181.243 120.14C181.243 120.14 180.578 121.763 181.448 122.723C181.965 123.293 182.246 124.182 182.389 124.812C182.349 124.875 182.307 124.94 182.263 125.008V125.009C181.803 125.723 181.187 126.654 180.782 127.167C180.066 128.076 180.27 130.955 180.27 130.955C180.27 130.955 180.117 132.319 179.605 132.824C179.093 133.329 179.196 135.198 179.196 135.198L177.865 140.097C177.865 140.097 176.637 141.208 176.637 141.713C176.637 142.218 175.664 143.632 175.664 143.632C175.664 143.632 174.18 146.056 175.664 145.703C176.205 145.544 176.713 145.289 177.163 144.949L177.162 144.986C177.16 145.074 177.158 145.165 177.157 145.256C177.115 147.897 177.402 151.612 179.349 151.612C182.369 151.612 190.149 155.198 190.149 155.198C191.735 156.41 193.885 156.006 193.885 156.006C193.885 156.006 190.097 159.794 190.2 161.36C190.302 162.925 188.05 165.501 188.05 165.501L181.089 179.087C181.128 180.034 181.296 180.97 181.588 181.872C181.555 181.9 181.521 181.928 181.489 181.958C178.814 184.401 178.581 189.238 178.581 189.238L177.967 191.713L187.282 195.804C187.282 195.804 199.361 196.057 201.46 195.501C203.558 194.946 203.098 192.622 200.334 192.168C197.57 191.713 196.905 190.501 195.983 189.946C195.362 189.571 193.155 187.149 191.785 185.613C191.765 185.59 191.746 185.568 191.725 185.545L192.042 183.784C192.657 183.481 193.578 180.451 193.578 180.451C193.578 180.451 193.578 179.238 194.192 178.885C194.806 178.531 196.086 174.895 196.086 174.895C196.086 174.895 198.85 170.299 198.696 169.693C198.543 169.087 200.692 166.006 200.692 166.006C200.692 166.006 204.326 162.471 204.173 161.839C204.019 161.208 207.09 157.976 207.09 157.976C208.2 157.128 209.124 156.064 209.808 154.846C210.084 154.802 210.381 154.754 210.694 154.702C214.713 154.043 221.391 152.852 222.138 152.521C223.161 152.066 222.956 154.087 222.547 155.804C222.138 157.521 221.83 165.753 222.291 166.814C222.752 167.875 222.547 169.592 222.547 169.592L221.933 178.834L222.342 180.804C222.342 180.804 220.96 181.915 221.523 182.572C222.086 183.228 221.575 186.057 221.575 186.057C221.623 186.039 221.68 186.021 221.745 186.004C221.695 186.115 221.648 186.229 221.606 186.349C220.813 188.61 221.267 192.319 221.267 192.319V195.249C221.267 195.249 235.445 195.501 238.567 195.501C241.689 195.501 245.988 193.986 246.244 192.774C246.5 191.562 242.662 190.552 241.229 190.501ZM200.905 137.923L199.976 138.001C200.284 137.956 200.594 137.93 200.905 137.923ZM206.567 99.1564C206.697 98.5721 206.855 97.9437 207.029 97.2991L206.567 99.1564ZM208.318 139.339C207.433 139.69 206.447 139.691 205.561 139.342L205.554 139.339C205.554 139.339 205.606 135.804 206.015 134.339C206.425 132.874 206.988 130.198 206.988 130.198C206.988 130.198 207.448 126.511 207.909 124.844C208.369 123.177 210.161 113.884 211.082 113.278C212.004 112.672 212.515 113.733 212.515 113.733C212.515 113.733 212.653 113.73 212.884 113.705C212.927 113.801 212.976 113.904 213.03 114.014C214.122 116.221 217.326 120.753 217.326 120.753C218.277 121.339 219.082 122.134 219.681 123.076C220.551 124.541 220.807 127.975 220.807 127.975C220.807 127.975 222.752 135.602 223.673 136.662C224.134 137.193 223.929 137.509 223.61 137.692C222.957 138.049 222.402 138.561 221.994 139.184C221.863 139.392 221.724 139.62 221.583 139.864C221.231 139.782 220.916 139.697 220.653 139.609C218.145 138.766 209.7 138.733 208.318 139.339Z" fill="url(#paint0_linear_122_198)"/>
<path d="M220.932 192.349V195.254C220.932 195.254 234.805 195.504 237.86 195.504C240.915 195.504 245.122 194.002 245.372 192.8C245.622 191.598 241.866 190.596 240.464 190.546C239.062 190.496 239.012 189.945 237.209 188.993C236.191 188.456 234.645 186.897 233.493 185.642C232.605 184.673 231.95 183.885 231.95 183.885C231.95 183.885 224.488 183.735 222.334 184.937C221.838 185.214 221.496 185.757 221.263 186.428C220.487 188.671 220.932 192.349 220.932 192.349Z" fill="#434175"/>
<path opacity="0.1" d="M221.263 186.428C222.828 185.884 231.988 185.673 233.493 185.642C232.605 184.673 231.95 183.885 231.95 183.885C231.95 183.885 224.488 183.735 222.334 184.937C221.838 185.214 221.496 185.757 221.263 186.428Z" fill="black"/>
<path d="M181.016 140.113C181.016 140.113 181.305 140.288 181.825 140.601C181.919 140.658 182.02 140.72 182.129 140.785C182.458 140.984 182.854 141.221 183.306 141.494C189.6 145.287 206.77 155.57 207.71 155.488C207.956 155.467 208.696 155.356 209.718 155.19C209.989 155.145 210.279 155.098 210.586 155.046C214.518 154.393 221.053 153.212 221.783 152.884C222.785 152.433 222.584 154.436 222.184 156.139C221.783 157.842 221.483 166.005 221.933 167.057C222.384 168.109 222.184 169.812 222.184 169.812L221.583 178.977L221.983 180.93C221.983 180.93 220.631 182.032 221.182 182.683C221.733 183.334 221.232 186.139 221.232 186.139C222.835 185.538 233.703 185.337 233.703 185.337C233.703 185.337 233.252 181.331 233.653 180.379C234.053 179.428 233.753 173.768 233.753 173.768C233.753 173.768 234.003 169.461 233.552 168.459C233.102 167.458 233.703 161.047 233.703 161.047C233.703 161.047 234.103 157.241 234.204 149.478C234.304 141.715 229.796 141.465 229.796 141.465C229.796 141.465 229.195 141.418 228.283 141.33C226.498 141.158 223.523 140.831 221.536 140.399C221.128 140.315 220.726 140.208 220.331 140.08C217.877 139.244 209.613 139.211 208.261 139.812C207.395 140.16 206.429 140.161 205.562 139.815L205.556 139.812L204.505 138.109L194.459 138.966L193.394 139.057L183.505 139.9L182.825 139.958L181.016 140.113Z" fill="#565387"/>
<path opacity="0.1" d="M221.282 147.795C224.2 149.218 226.985 144.175 228.283 141.33C226.498 141.158 223.523 140.831 221.536 140.399C220.228 142.593 218.485 146.432 221.282 147.795Z" fill="black"/>
<path d="M212.518 113.719C212.579 114.063 212.698 114.395 212.871 114.699C213.94 116.887 217.075 121.382 217.075 121.382C218.008 121.965 218.796 122.753 219.379 123.686C220.23 125.138 220.481 128.544 220.481 128.544C220.481 128.544 222.384 136.106 223.286 137.158C223.736 137.684 223.536 137.997 223.223 138.179C222.583 138.534 222.04 139.042 221.643 139.658C220.33 141.769 218.233 145.957 221.182 147.395C225.189 149.348 228.945 139.111 228.945 139.111C228.945 139.111 228.194 131.849 227.993 130.597C227.793 129.345 226.591 124.186 226.591 124.186C226.591 124.186 225.74 121.983 225.239 120.43C224.738 118.878 223.235 117.075 223.235 117.075C223.235 117.075 220.531 111.666 219.78 110.864C219.431 110.493 218.942 110.024 218.519 109.628C218.029 109.171 217.626 108.811 217.626 108.811C217.626 108.811 212.468 112.517 212.518 113.719Z" fill="#D9B5BB"/>
<path d="M178.562 191.748L187.677 195.805C187.677 195.805 199.496 196.055 201.55 195.504C203.603 194.953 203.152 192.649 200.448 192.199C197.743 191.748 197.092 190.546 196.191 189.995C195.583 189.623 193.423 187.221 192.083 185.699C191.438 184.966 190.982 184.436 190.982 184.436C190.982 184.436 189.229 179.778 184.371 180.83C183.485 181.021 182.667 181.452 182.007 182.074C179.39 184.497 179.163 189.294 179.163 189.294L178.562 191.748Z" fill="#434175"/>
<path opacity="0.1" d="M182.129 140.785C182.458 140.984 182.854 141.221 183.306 141.494C189.6 145.287 206.77 155.57 207.71 155.488C207.956 155.467 208.696 155.356 209.718 155.189C209.989 155.145 210.279 155.098 210.586 155.046C210.598 155.027 210.609 155.008 210.62 154.989C211.124 154.108 211.51 153.165 211.767 152.182C212.818 148.176 207.61 145.121 207.61 145.121L206.508 144.264C205.256 142.156 196.241 140.163 196.241 140.163L195.079 139.382L194.459 138.966L194.296 138.856L192.885 137.909L185.824 138.41L183.726 139.758L183.505 139.9L182.727 140.401L182.129 140.785Z" fill="black"/>
<path opacity="0.1" d="M182.007 182.074C183.925 188.705 191.934 186.539 191.934 186.539L192.083 185.699C191.438 184.966 190.982 184.436 190.982 184.436C190.982 184.436 189.229 179.778 184.371 180.83C183.485 181.021 182.667 181.452 182.007 182.074Z" fill="black"/>
<path d="M179.914 151.982C182.869 151.982 190.481 155.538 190.481 155.538C192.034 156.74 194.137 156.339 194.137 156.339C194.137 156.339 190.431 160.096 190.531 161.648C190.632 163.201 188.428 165.755 188.428 165.755L181.617 179.227C182.118 188.793 191.934 186.139 191.934 186.139L192.334 183.885C192.935 183.584 193.837 180.58 193.837 180.58C193.837 180.58 193.837 179.378 194.438 179.027C195.039 178.676 196.291 175.07 196.291 175.07C196.291 175.07 198.995 170.513 198.845 169.912C198.695 169.311 200.798 166.256 200.798 166.256C200.798 166.256 204.354 162.75 204.204 162.124C204.054 161.498 207.059 158.293 207.059 158.293C208.147 157.45 209.052 156.394 209.718 155.19C210.223 154.309 210.608 153.365 210.865 152.383C211.712 149.157 208.499 146.546 207.216 145.654C206.906 145.437 206.708 145.321 206.708 145.321L205.606 144.465C205.037 143.505 202.862 142.571 200.659 141.837C199.071 141.307 197.467 140.881 196.442 140.626C195.764 140.457 195.339 140.363 195.339 140.363L194.177 139.583L193.769 139.308L193.394 139.057L191.984 138.109L188.842 138.332L184.922 138.61L182.825 139.958L181.825 140.601L177.911 143.118C177.911 143.118 177.807 144.081 177.774 145.374C177.772 145.475 177.77 145.576 177.768 145.68C177.727 148.298 178.009 151.982 179.914 151.982Z" fill="#565387"/>
<path d="M194.989 95.8896L196.041 99.6458C196.041 99.6458 197.894 106.107 198.094 106.557C198.294 107.008 203.152 111.566 203.353 111.666C203.553 111.766 206.198 113.268 206.198 113.268C206.198 113.268 206.408 105.005 206.207 102.601C206.19 102.073 206.234 101.544 206.338 101.026C206.657 99.142 207.465 96.3795 208.135 94.2519C208.696 92.469 209.162 91.1318 209.162 91.1318C209.162 91.1318 197.443 90.631 197.844 91.7829C197.995 92.2186 197.946 92.9468 197.799 93.677C197.558 94.878 197.053 96.083 196.742 95.9898C196.437 95.9209 196.126 95.8863 195.813 95.8866C195.38 95.8736 194.989 95.8896 194.989 95.8896Z" fill="#D9B5BB"/>
<path opacity="0.1" d="M197.799 93.677C200.74 96.1309 204.941 96.3646 208.136 94.2519C208.696 92.469 209.162 91.1318 209.162 91.1318C209.162 91.1318 197.443 90.631 197.844 91.7829C197.995 92.2186 197.946 92.9468 197.799 93.677Z" fill="black"/>
<path d="M212.018 86.7265C212.018 87.6454 211.872 88.5585 211.585 89.4313C211.512 89.6566 211.429 89.8781 211.334 90.095C209.954 93.3644 206.719 95.4615 203.171 95.3876C199.623 95.3136 196.479 93.0835 195.236 89.7594C194.891 88.8401 194.708 87.8683 194.695 86.8868C194.69 86.8342 194.69 86.7791 194.69 86.7265C194.69 81.9414 198.569 78.0623 203.354 78.0623C208.139 78.0623 212.018 81.9414 212.018 86.7265Z" fill="#D9B5BB"/>
<path opacity="0.1" d="M194.989 95.8897L196.041 99.6459C196.041 99.6459 197.894 106.107 198.094 106.557C198.294 107.008 203.152 111.566 203.353 111.666C203.553 111.766 206.198 113.268 206.198 113.268C206.198 113.268 206.408 105.005 206.207 102.601C206.19 102.073 206.234 101.544 206.338 101.026L205.656 103.803L205.706 109.362L206.107 109.662L205.206 111.015V110.013C205.206 110.013 202 106.908 201.5 105.606C200.999 104.304 199.196 101.946 199.196 101.946C199.196 101.946 197.142 98.494 197.092 97.893C197.053 97.4242 196.191 96.3404 195.813 95.8867C195.38 95.8737 194.989 95.8897 194.989 95.8897Z" fill="black"/>
<path opacity="0.1" d="M212.518 113.719C212.579 114.063 212.698 114.395 212.871 114.699C213.966 114.587 217.697 113.89 218.519 109.628C218.029 109.171 217.626 108.811 217.626 108.811C217.626 108.811 212.468 112.517 212.518 113.719Z" fill="black"/>
<path opacity="0.1" d="M177.768 145.68C178.779 144.965 179.741 143.989 180.315 143.719C181.166 143.318 182.468 142.016 182.468 142.016C182.468 142.016 182.799 141.791 183.306 141.494C184.235 140.949 185.759 140.16 186.925 140.063C187.971 139.975 191.445 139.753 194.177 139.583C196.155 139.459 197.743 139.361 197.743 139.361C197.743 139.361 200.999 138.21 202.401 138.961C203.405 139.464 204.464 139.85 205.556 140.113C205.556 140.113 205.557 140.003 205.562 139.815L205.556 139.812L204.505 138.109L193.394 139.057L191.984 138.109L184.922 138.61L182.825 139.958L181.016 140.113C181.016 140.113 181.305 140.288 181.825 140.601L177.911 143.118C177.911 143.118 177.79 144.236 177.768 145.68Z" fill="black"/>
<path d="M176.308 146.123C176.838 145.965 177.335 145.712 177.774 145.375V145.374C178.783 144.66 179.742 143.688 180.315 143.418C181.166 143.017 182.468 141.715 182.468 141.715C182.468 141.715 185.123 139.912 186.925 139.762C187.417 139.721 188.445 139.65 189.68 139.57C190.944 139.486 192.424 139.391 193.769 139.308C194.544 139.259 195.274 139.213 195.891 139.175C196.997 139.107 197.743 139.061 197.743 139.061C197.743 139.061 200.999 137.909 202.401 138.66C203.405 139.163 204.464 139.55 205.556 139.812C205.556 139.812 205.606 136.306 206.007 134.854C206.408 133.402 206.959 130.747 206.959 130.747C206.959 130.747 207.409 127.091 207.86 125.438C208.311 123.786 210.064 114.57 210.965 113.97C211.867 113.369 212.367 114.42 212.367 114.42C212.367 114.42 218.377 114.32 218.478 107.709C218.478 107.709 215.673 104.905 215.473 104.203C215.272 103.502 212.618 100.898 212.618 100.898C212.618 100.898 211.115 98.0933 209.413 98.0432C208.608 97.9969 207.801 98.0217 207.001 98.1173L205.556 104.003L205.606 109.562L206.007 109.863L205.106 111.215V110.213C205.106 110.213 201.9 107.108 201.399 105.806C200.899 104.504 199.096 102.146 199.096 102.146C199.096 102.146 197.042 98.6943 196.992 98.0933C196.942 97.4923 195.54 95.8817 195.54 95.8817C195.257 95.8485 194.971 95.8485 194.688 95.8817C194.562 95.8904 194.435 95.8727 194.316 95.8296C193.507 95.5712 192.646 95.5222 191.814 95.6873C190.082 96.0469 187.447 96.705 186.725 97.4923C185.623 98.6943 184.021 99.8462 182.218 104.854L191.934 108.36L191.102 109.941L183.37 124.637C183.37 124.637 183.113 125.055 182.766 125.601C182.315 126.309 181.712 127.233 181.316 127.742C180.615 128.644 180.815 131.498 180.815 131.498C180.815 131.498 180.665 132.851 180.164 133.351C179.664 133.852 179.764 135.705 179.764 135.705L178.462 140.563C178.462 140.563 177.26 141.665 177.26 142.166C177.26 142.667 176.308 144.069 176.308 144.069C176.308 144.069 174.856 146.473 176.308 146.123Z" fill="#434175"/>
<path opacity="0.1" d="M227.593 149.729C227.593 149.729 224.437 150.78 223.586 152.283C222.735 153.785 227.593 149.729 227.593 149.729Z" fill="black"/>
<path opacity="0.1" d="M225.99 146.423C225.89 146.573 221.669 150.809 221.933 151.832C222.198 152.855 225.99 146.423 225.99 146.423Z" fill="black"/>
<path opacity="0.1" d="M202.802 149.428C202.802 149.428 198.094 151.648 197.693 152.617C197.293 153.585 202.802 149.428 202.802 149.428Z" fill="black"/>
<path opacity="0.1" d="M202.501 152.283C202.501 152.283 198.253 154.086 197.672 154.536C197.092 154.987 202.501 152.283 202.501 152.283Z" fill="black"/>
<path opacity="0.1" d="M200.548 156.139C200.548 156.139 198.666 157.541 197.629 156.44C196.591 155.338 200.548 156.139 200.548 156.139Z" fill="black"/>
<path opacity="0.1" d="M207.61 119.579C207.509 119.729 201.249 130.998 199.596 131.849C197.944 132.701 207.61 119.579 207.61 119.579Z" fill="black"/>
<path opacity="0.1" d="M207.309 123.836C207.309 124.086 201.199 137.158 200.197 137.308C199.196 137.458 207.309 123.836 207.309 123.836Z" fill="black"/>
<path opacity="0.1" d="M184.071 132.25C184.071 132.25 181.12 138.551 179.964 138.911C178.808 139.27 184.071 132.25 184.071 132.25Z" fill="black"/>
<path opacity="0.1" d="M183.57 129.445C183.57 129.445 182.553 131.649 181.934 131.649C181.316 131.649 183.57 129.445 183.57 129.445Z" fill="black"/>
<path opacity="0.1" d="M212.018 86.7265C212.018 87.6454 211.872 88.5585 211.585 89.4313C211.512 89.6566 211.429 89.8781 211.334 90.095C210.889 90.0276 210.47 89.8435 210.12 89.5615C209.748 89.3096 209.437 88.9775 209.21 88.5898C209.04 88.1767 208.892 87.7545 208.767 87.3251C208.36 86.3381 207.451 85.6489 206.39 85.5243C206.678 86.0152 206.22 86.6889 205.657 86.7766C205.093 86.8617 204.545 86.5261 204.156 86.1079C203.768 85.6896 203.488 85.1812 203.102 84.763C202.714 84.3447 202.165 84.0091 201.602 84.0943C201.103 84.1694 200.718 84.5501 200.3 84.8331C199.884 85.1161 199.3 85.3065 198.897 85.0034C198.672 84.8356 198.561 84.5501 198.346 84.3673C197.793 83.9039 196.931 84.3823 196.523 84.9809C195.894 85.9075 195.511 86.4685 194.695 86.8868C194.69 86.8342 194.69 86.7791 194.69 86.7265C194.69 81.9414 198.569 78.0623 203.354 78.0623C208.139 78.0623 212.018 81.9414 212.018 86.7265Z" fill="black"/>
<path d="M196.524 84.7304C196.931 84.1314 197.792 83.6525 198.347 84.1181C198.563 84.2988 198.673 84.5846 198.897 84.7538C199.3 85.0571 199.884 84.8668 200.3 84.5828C200.717 84.2988 201.103 83.9198 201.602 83.844C202.165 83.7583 202.714 84.0942 203.102 84.5128C203.489 84.9314 203.769 85.4392 204.156 85.8577C204.543 86.2762 205.093 86.6118 205.657 86.5256C206.22 86.4394 206.68 85.765 206.39 85.274C207.45 85.3989 208.359 86.0879 208.766 87.0746C208.891 87.5039 209.039 87.9261 209.21 88.3391C209.437 88.7268 209.748 89.0586 210.12 89.31C210.58 89.6469 211.136 89.9309 211.698 89.8332C212.259 89.7355 212.734 89.0923 212.474 88.5857C212.653 88.8581 213.038 88.4786 213.096 88.1576C213.223 87.4536 213.184 86.7297 212.981 86.0438C212.704 85.1129 212.123 84.1897 212.347 83.2446C212.524 82.4964 213.163 81.9591 213.552 81.2954C214.24 80.1187 214.057 78.5336 213.22 77.4576C212.338 76.388 211 75.8015 209.615 75.8775C209.239 75.9205 208.86 75.9276 208.482 75.8986C207.853 75.8052 207.321 75.4005 206.82 75.0093L202.625 71.7347C202.159 71.3233 201.621 70.9997 201.04 70.7794C200.447 70.5955 199.736 70.6589 199.297 71.0978C198.512 71.8833 199.011 73.2351 198.696 74.3002C198.423 75.2227 197.543 75.8479 196.633 76.1595C195.723 76.4711 194.749 76.5395 193.814 76.7651C193.535 76.8111 193.274 76.9326 193.059 77.1164C192.817 77.4157 192.699 77.7972 192.732 78.1812C192.725 79.1234 192.949 80.053 193.383 80.8895C193.869 81.8237 194.638 82.784 194.366 83.8012C194.222 84.3395 193.807 84.7543 193.441 85.1748C192.649 86.0866 192.381 87.4339 193.873 86.9632C195.31 86.5099 195.713 85.9224 196.524 84.7304Z" fill="#434175"/>
<g opacity="0.1">
<path d="M213.097 87.1701C213.039 87.4911 212.654 87.8706 212.474 87.5981C212.735 88.1047 212.26 88.748 211.699 88.8457C211.137 88.9434 210.58 88.6593 210.121 88.3224C209.749 88.0711 209.437 87.7393 209.211 87.3516C209.04 86.9385 208.891 86.5164 208.767 86.087C208.36 85.1004 207.451 84.4113 206.391 84.2864C206.68 84.7774 206.221 85.4518 205.657 85.538C205.094 85.6243 204.544 85.2886 204.157 84.8702C203.77 84.4517 203.489 83.9438 203.102 83.5252C202.715 83.1066 202.166 82.7707 201.603 82.8565C201.104 82.9323 200.718 83.3112 200.301 83.5953C199.885 83.8793 199.301 84.0696 198.898 83.7663C198.673 83.5971 198.563 83.3113 198.348 83.1306C197.793 82.6649 196.932 83.1439 196.524 83.7429C195.714 84.9348 195.311 85.5223 193.874 85.9757C193.402 86.1245 193.107 86.0909 192.948 85.9474C192.633 86.6715 192.776 87.3093 193.874 86.9631C195.311 86.5097 195.714 85.9222 196.524 84.7303C196.932 84.1312 197.793 83.6523 198.348 84.118C198.563 84.2987 198.673 84.5845 198.898 84.7537C199.301 85.057 199.885 84.8667 200.301 84.5827C200.718 84.2987 201.104 83.9197 201.603 83.8439C202.166 83.7581 202.715 84.0941 203.102 84.5126C203.489 84.9312 203.77 85.4391 204.157 85.8576C204.544 86.2761 205.094 86.6117 205.657 86.5254C206.221 86.4392 206.68 85.7649 206.391 85.2738C207.451 85.3987 208.36 86.0878 208.767 87.0744C208.892 87.5038 209.04 87.9259 209.211 88.339C209.437 88.7267 209.749 89.0585 210.121 89.3098C210.58 89.6467 211.137 89.9308 211.699 89.8331C212.26 89.7354 212.735 89.0921 212.474 88.5855C212.654 88.858 213.039 88.4785 213.097 88.1575C213.175 87.7252 213.19 87.284 213.142 86.8474C213.131 86.9554 213.117 87.0631 213.097 87.1701Z" fill="black"/>
<path d="M194.354 82.8516C194.358 82.8387 194.363 82.8266 194.367 82.8136C194.639 81.7964 193.869 80.8361 193.384 79.9019C193.043 79.243 192.832 78.525 192.761 77.7866C192.742 77.9172 192.733 78.049 192.732 78.181C192.726 79.1232 192.95 80.0528 193.384 80.8893C193.716 81.5279 194.18 82.1788 194.354 82.8516Z" fill="black"/>
<path d="M213.553 80.3077C213.164 80.9715 212.525 81.5087 212.348 82.257C212.279 82.5735 212.282 82.9014 212.357 83.2166C212.543 82.4832 213.169 81.9504 213.553 81.2951C213.914 80.6533 214.05 79.9088 213.938 79.1807C213.884 79.5777 213.753 79.9605 213.553 80.3077Z" fill="black"/>
</g>
<path opacity="0.1" d="M182.766 125.601V125.602C182.832 125.878 182.883 126.158 182.919 126.44C182.919 126.44 186.875 135.705 187.376 136.256C187.53 136.426 188.111 137.259 188.842 138.332C189.106 138.719 189.39 139.139 189.68 139.57C191.195 141.818 192.885 144.37 192.885 144.37L196.591 147.625C196.591 147.625 204.654 148.27 207.216 145.654C206.905 145.438 206.708 145.321 206.708 145.321L205.606 144.465C205.037 143.505 202.862 142.571 200.659 141.837C198.63 141.852 196.97 142.016 196.97 142.016L196.442 140.626L195.891 139.175L193.09 131.799C193.09 131.799 191.283 122.484 190.682 122.033C190.081 121.582 190.231 120.18 190.231 120.18C190.231 120.18 191.333 116.223 190.932 115.672C190.531 115.121 191.583 111.065 191.583 111.065C191.479 110.669 191.317 110.29 191.102 109.941L183.37 124.637C183.37 124.637 183.113 125.055 182.766 125.601Z" fill="black"/>
<path d="M191.683 110.764C191.683 110.764 190.632 114.821 191.032 115.372C191.433 115.923 190.331 119.879 190.331 119.879C190.331 119.879 190.181 121.282 190.782 121.732C191.383 122.183 193.19 131.498 193.19 131.498L197.07 141.715C197.07 141.715 209.212 140.513 207.96 144.32C206.708 148.126 196.692 147.325 196.692 147.325L192.986 144.069C192.986 144.069 187.977 136.507 187.476 135.956C186.976 135.405 183.019 126.14 183.019 126.14C183.019 126.14 182.819 124.286 181.967 123.335C181.116 122.383 181.767 120.774 181.767 120.774C181.767 120.774 180.715 108.661 181.817 107.208C182.919 105.756 190.531 106.407 191.683 110.764Z" fill="#D9B5BB"/>
<path opacity="0.1" d="M185.473 103.152L182.318 105.055C182.318 105.055 181.416 108.11 180.715 108.511C180.715 108.511 187.026 105.005 191.784 113.068C191.784 113.068 191.633 112.016 192.284 111.516C192.935 111.015 192.785 108.861 192.785 108.861C192.958 108.521 193.109 108.17 193.236 107.809C193.687 106.708 191.333 100.397 185.473 103.152Z" fill="black"/>
<path d="M185.373 102.951L182.218 104.854C182.218 104.854 181.316 107.91 180.615 108.31C180.615 108.31 186.925 104.804 191.683 112.868C191.683 112.868 191.533 111.816 192.184 111.315C192.835 110.814 192.685 108.661 192.685 108.661C192.858 108.32 193.009 107.969 193.136 107.609C193.586 106.507 191.233 100.197 185.373 102.951Z" fill="#434175"/>
<path d="M157.25 190.66C162.445 190.66 166.656 186.189 166.656 180.675C166.656 175.161 162.445 170.691 157.25 170.691C152.056 170.691 147.844 175.161 147.844 180.675C147.844 186.189 152.056 190.66 157.25 190.66Z" fill="#FBD56F"/>
<path opacity="0.1" d="M157.25 190.66C162.445 190.66 166.656 186.189 166.656 180.675C166.656 175.161 162.445 170.691 157.25 170.691C152.056 170.691 147.844 175.161 147.844 180.675C147.844 186.189 152.056 190.66 157.25 190.66Z" fill="black"/>
<path d="M158.874 190.659C164.069 190.659 168.28 186.289 168.28 180.898C168.28 175.506 164.069 171.136 158.874 171.136C153.679 171.136 149.468 175.506 149.468 180.898C149.468 186.289 153.679 190.659 158.874 190.659Z" fill="#FBD56F"/>
<path d="M22.576 186.162C28.992 186.162 34.1932 185.283 34.1932 184.198C34.1932 183.114 28.992 182.234 22.576 182.234C16.16 182.234 10.9588 183.114 10.9588 184.198C10.9588 185.283 16.16 186.162 22.576 186.162Z" fill="#2A46FF"/>
<path d="M27.3796 180.985C27.8772 180.523 28.3439 179.978 28.4872 179.314C28.6306 178.65 28.3476 177.854 27.7133 177.611C27.0025 177.339 26.2429 177.832 25.667 178.33C25.0912 178.827 24.4312 179.395 23.6775 179.29C24.4661 178.575 24.8217 177.499 24.6142 176.455C24.5811 176.243 24.4911 176.044 24.3537 175.879C23.9591 175.457 23.2438 175.639 22.7714 175.971C21.2689 177.028 20.8497 179.069 20.8415 180.906C20.69 180.243 20.8176 179.552 20.8138 178.873C20.8101 178.193 20.6238 177.44 20.0505 177.075C19.6933 176.882 19.2916 176.788 18.8862 176.801C18.2108 176.776 17.4586 176.844 16.9974 177.338C16.4243 177.952 16.5729 178.981 17.0715 179.657C17.57 180.333 18.3284 180.756 19.0265 181.223C19.5864 181.556 20.064 182.012 20.4236 182.555C20.4658 182.631 20.5005 182.711 20.5271 182.793H24.7612C25.7117 182.312 26.5925 181.703 27.3796 180.985Z" fill="#2A46FF"/>
<path d="M127.633 171.392C128.151 172.101 128.574 172.873 128.892 173.691C128.976 173.903 129.059 174.125 129.137 174.358C130.388 178.098 128.405 182.584 127.838 182.1C127.271 181.616 125.504 180.718 125.163 181.98C124.821 183.241 123.559 184.531 123.559 184.531C121.26 186.843 119.179 184.345 117.813 181.763C117.367 180.911 116.97 180.035 116.625 179.137C116.321 178.344 116.147 177.796 116.147 177.796L125.723 169.637C125.723 169.637 126.649 170.062 127.633 171.392Z" fill="#2A46FF"/>
<path d="M112.54 176.609C113.058 177.318 113.481 178.091 113.799 178.909C113.884 179.12 113.966 179.342 114.044 179.575C115.295 183.316 113.312 187.801 112.745 187.317C112.178 186.834 110.412 185.936 110.07 187.197C109.728 188.459 108.466 189.748 108.466 189.748C106.167 192.061 104.086 189.562 102.72 186.981C102.274 186.129 101.877 185.252 101.532 184.355C101.228 183.562 101.054 183.014 101.054 183.014L110.63 174.855C110.63 174.855 111.556 175.28 112.54 176.609Z" fill="#2A46FF"/>
<path d="M82.2353 183.817C82.1815 184.693 82.0141 185.558 81.7374 186.391C81.6672 186.607 81.5888 186.831 81.5001 187.06C80.0765 190.738 75.6872 192.926 75.5594 192.192C75.4317 191.457 74.6444 189.639 73.5763 190.392C72.5083 191.145 70.7138 191.332 70.7138 191.332C67.468 191.646 67.4603 188.394 68.0561 185.535C68.2561 184.594 68.5101 183.666 68.817 182.754C69.0895 181.95 69.3051 181.417 69.3051 181.417L81.8848 181.247C81.8848 181.247 82.3263 182.165 82.2353 183.817Z" fill="#2A46FF"/>
<path d="M65.9816 179.718C65.9278 180.594 65.7604 181.459 65.4836 182.291C65.4135 182.508 65.3351 182.732 65.2464 182.961C63.8228 186.639 59.4334 188.827 59.3057 188.092C59.178 187.358 58.3907 185.539 57.3226 186.293C56.2545 187.046 54.4601 187.233 54.4601 187.233C51.2142 187.546 51.2066 184.294 51.8024 181.435C52.0024 180.495 52.2564 179.566 52.5633 178.655C52.8358 177.851 53.0513 177.318 53.0513 177.318L65.6311 177.148C65.6311 177.148 66.0726 178.066 65.9816 179.718Z" fill="#2A46FF"/>
<path opacity="0.2" d="M127.633 171.392C128.151 172.101 128.574 172.873 128.892 173.691C128.976 173.903 129.059 174.125 129.137 174.358C130.388 178.098 128.405 182.584 127.838 182.1C127.271 181.616 125.504 180.718 125.163 181.98C124.821 183.241 123.559 184.531 123.559 184.531C121.26 186.843 119.179 184.345 117.813 181.763C117.367 180.911 116.97 180.035 116.625 179.137C116.321 178.344 116.147 177.796 116.147 177.796L125.723 169.637C125.723 169.637 126.649 170.062 127.633 171.392Z" fill="black"/>
<path opacity="0.2" d="M112.54 176.609C113.058 177.318 113.481 178.091 113.799 178.909C113.884 179.12 113.966 179.342 114.044 179.575C115.295 183.316 113.312 187.801 112.745 187.317C112.178 186.834 110.412 185.936 110.07 187.197C109.728 188.459 108.466 189.748 108.466 189.748C106.167 192.061 104.086 189.562 102.72 186.981C102.274 186.129 101.877 185.252 101.532 184.355C101.228 183.562 101.054 183.014 101.054 183.014L110.63 174.855C110.63 174.855 111.556 175.28 112.54 176.609Z" fill="black"/>
<path opacity="0.2" d="M82.2353 183.817C82.1815 184.693 82.0141 185.558 81.7374 186.391C81.6672 186.607 81.5888 186.831 81.5001 187.06C80.0765 190.738 75.6872 192.926 75.5594 192.192C75.4317 191.457 74.6444 189.639 73.5763 190.392C72.5083 191.145 70.7138 191.332 70.7138 191.332C67.468 191.646 67.4603 188.394 68.0561 185.535C68.2561 184.594 68.5101 183.666 68.817 182.754C69.0895 181.95 69.3051 181.417 69.3051 181.417L81.8848 181.247C81.8848 181.247 82.3263 182.165 82.2353 183.817Z" fill="black"/>
<path opacity="0.2" d="M65.9816 179.718C65.9278 180.594 65.7604 181.459 65.4836 182.291C65.4135 182.508 65.3351 182.732 65.2464 182.961C63.8228 186.639 59.4334 188.827 59.3057 188.092C59.178 187.358 58.3907 185.539 57.3226 186.293C56.2545 187.046 54.4601 187.233 54.4601 187.233C51.2142 187.546 51.2066 184.294 51.8024 181.435C52.0024 180.495 52.2564 179.566 52.5633 178.655C52.8358 177.851 53.0513 177.318 53.0513 177.318L65.6311 177.148C65.6311 177.148 66.0726 178.066 65.9816 179.718Z" fill="black"/>
<path d="M153.178 124.586C153.178 158.186 141.811 185.424 89.3586 185.424C54.1123 185.424 26.8439 176.666 25.5396 124.586C24.6983 90.9968 54.1123 63.7483 89.3585 63.7483C124.605 63.7483 153.178 90.9862 153.178 124.586Z" fill="#2A46FF"/>
<path opacity="0.2" d="M77.3867 64.8103H77.3941L77.3885 64.8122L77.3867 64.8103Z" fill="black"/>
<path opacity="0.2" d="M77.5115 64.7898C77.6736 64.7637 77.9941 64.719 78.4599 64.6836L77.4221 64.8066C77.437 64.8028 77.4556 64.7991 77.478 64.7954C77.4891 64.7935 77.4985 64.7917 77.5115 64.7898Z" fill="black"/>
<path opacity="0.2" d="M124.669 89.6486L120.01 91.3256C117.636 88.141 115.081 85.0951 112.358 82.2027C109.386 79.0328 106.143 76.1281 102.666 73.5215C90.7393 64.6818 81.5139 64.4564 78.4674 64.6837L85.4698 63.8601C92.0879 64.9988 98.4524 67.2995 104.269 70.6557C108.338 73.0015 112.128 75.8013 115.566 79.0015C121.663 84.6605 124.669 89.6486 124.669 89.6486Z" fill="black"/>
<path opacity="0.2" d="M82.5574 92.8161C82.5574 92.8161 76.4084 72.3195 81.6257 66.7295C81.6257 66.7295 89.8244 63.9345 95.9734 79.7728L82.5574 92.8161Z" fill="black"/>
<path d="M113.694 73.6723C113.694 73.6723 130 59.8153 137.214 62.3509C137.214 62.3509 143.064 68.7389 131.024 80.7267L113.694 73.6723Z" fill="#2A46FF"/>
<path opacity="0.2" d="M113.694 73.6723C113.694 73.6723 130 59.8153 137.214 62.3509C137.214 62.3509 143.064 68.7389 131.024 80.7267L113.694 73.6723Z" fill="black"/>
<path d="M164.544 140.051C164.544 158.112 151.584 172.38 139.389 172.38C127.194 172.38 120.383 158.112 120.383 140.051C120.383 121.991 130.289 108.056 142.463 107.35C161.749 106.232 164.544 121.991 164.544 140.051Z" fill="#2A46FF"/>
<path opacity="0.2" d="M164.544 140.051C164.544 158.112 151.584 172.38 139.389 172.38C127.194 172.38 120.383 158.112 120.383 140.051C120.383 121.991 130.289 108.056 142.463 107.35C161.749 106.232 164.544 121.991 164.544 140.051Z" fill="black"/>
<path d="M138.644 147.971C140.908 147.971 142.743 145.635 142.743 142.753C142.743 139.872 140.908 137.536 138.644 137.536C136.38 137.536 134.544 139.872 134.544 142.753C134.544 145.635 136.38 147.971 138.644 147.971Z" fill="#2A46FF"/>
<path d="M153.178 143.499C155.442 143.499 157.277 141.163 157.277 138.281C157.277 135.4 155.442 133.064 153.178 133.064C150.914 133.064 149.078 135.4 149.078 138.281C149.078 141.163 150.914 143.499 153.178 143.499Z" fill="#2A46FF"/>
<path d="M116.362 75.6363C116.365 76.8049 116.092 77.9578 115.566 79.0015C114.872 80.3882 113.746 81.5118 112.358 82.2027C109.386 79.0328 106.143 76.128 102.666 73.5214C102.976 72.4569 103.524 71.4769 104.269 70.6556C105.567 69.208 107.419 68.3785 109.363 68.373C113.228 68.373 116.362 71.6245 116.362 75.6363Z" fill="#FAD46F"/>
</g>
<defs>
<linearGradient id="paint0_linear_122_198" x1="3737.62" y1="12693.2" x2="3737.62" y2="69.626" gradientUnits="userSpaceOnUse">
<stop stop-color="#808080" stop-opacity="0.25"/>
<stop offset="0.53514" stop-color="#808080" stop-opacity="0.12"/>
<stop offset="1" stop-color="#808080" stop-opacity="0.1"/>
</linearGradient>
<clipPath id="clip0_122_198">
<rect width="280" height="202" fill="white"/>
</clipPath>
</defs>
</svg>
