<svg width="18" height="21" viewBox="0 0 18 21" fill="none" xmlns="http://www.w3.org/2000/svg">
<g clip-path="url(#clip0_65_140)">
<path d="M10.1489 13.9491C10.0705 13.8633 9.97126 13.799 9.86874 13.7455C9.64549 13.6291 9.40135 13.5585 9.15894 13.4948V15.3732C9.5524 15.3287 10.0041 15.1859 10.2107 14.8186C10.3093 14.6431 10.329 14.4275 10.2888 14.2322C10.267 14.1264 10.222 14.0292 10.1489 13.9491Z" fill="#2B47FC"/>
<path d="M7.31341 10.9463C7.24576 11.0451 7.20332 11.1573 7.19161 11.2766C7.1799 11.3961 7.18647 11.529 7.23188 11.6416C7.27512 11.7488 7.36569 11.8279 7.45917 11.8917C7.56408 11.963 7.67945 12.0188 7.79695 12.066C7.89553 12.1057 8.00641 12.1436 8.12594 12.1803V10.4805C7.82398 10.545 7.49406 10.6825 7.31341 10.9463Z" fill="#2B47FC"/>
<path d="M10.2479 14.8229C10.2429 14.8318 10.2375 14.8411 10.2322 14.8509C10.2384 14.8395 10.2433 14.8311 10.2479 14.8229Z" fill="#2B47FC"/>
<path d="M10.2534 14.8128C10.2547 14.8104 10.2549 14.8102 10.2534 14.8128V14.8128Z" fill="#2B47FC"/>
<path d="M9.82069 4.56905C11.4181 3.22712 12.4855 0.203963 11.8286 0.0717369C10.9558 -0.104021 9.06049 0.666655 8.14439 0.802438C6.84506 0.95932 5.42991 -0.606538 4.63556 0.266271C3.9897 0.975923 5.0986 3.5567 6.8335 4.68101C1.65752 7.22493 -5.61767 19.9956 7.07428 20.9222C24.6358 22.2044 15.8421 7.04804 9.82069 4.56905ZM11.3289 14.6406C11.2749 15.1385 11.011 15.5887 10.6166 15.8944C10.2002 16.2171 9.67784 16.3672 9.15887 16.4093V16.9594C9.15887 17.1066 9.09458 17.2489 8.98439 17.3464C8.83295 17.4804 8.6104 17.5134 8.42658 17.4288C8.24509 17.3452 8.12586 17.1591 8.12586 16.9594V16.3582C8.03687 16.3413 7.94852 16.3211 7.86121 16.2972C7.37619 16.1639 6.92629 15.9042 6.59766 15.5198C6.43396 15.3283 6.30049 15.1109 6.20819 14.8762C6.18408 14.8149 6.16259 14.7525 6.14376 14.6893C6.12671 14.6321 6.10912 14.574 6.10304 14.5145C6.09282 14.4145 6.11263 14.3125 6.15923 14.2235C6.25499 14.0403 6.45678 13.9297 6.66283 13.948C6.86562 13.966 7.04335 14.1068 7.10719 14.3001C7.12686 14.3596 7.1402 14.4206 7.16228 14.4795C7.18417 14.538 7.21061 14.5949 7.24169 14.649C7.30306 14.7557 7.37994 14.854 7.46849 14.9393C7.65102 15.1152 7.8835 15.2295 8.12586 15.2975V13.2537C7.65195 13.131 7.16278 12.9726 6.77144 12.6683C6.58125 12.5203 6.41987 12.3365 6.31418 12.119C6.20266 11.8894 6.15646 11.6335 6.15458 11.3795C6.15265 11.1215 6.20167 10.8658 6.30929 10.6307C6.41009 10.4107 6.55521 10.2131 6.73314 10.0493C7.11361 9.69908 7.619 9.50375 8.12591 9.43201V9.38704V8.86095C8.12591 8.71381 8.1902 8.5714 8.30039 8.47396C8.45188 8.34001 8.67433 8.3069 8.8582 8.39159C9.03964 8.47515 9.15892 8.66123 9.15892 8.86095V9.38704V9.42889C9.22646 9.43739 9.29381 9.44757 9.36081 9.45973C9.85859 9.5498 10.3454 9.75536 10.7095 10.1142C10.8819 10.2842 11.0231 10.4867 11.1223 10.7076C11.1501 10.7692 11.1743 10.8323 11.1953 10.8966C11.2149 10.9565 11.2346 11.0182 11.2439 11.0808C11.2588 11.1806 11.2436 11.2838 11.2009 11.3752C11.1133 11.5623 10.9169 11.6815 10.7103 11.6727C10.5074 11.6638 10.3235 11.5317 10.2508 11.3419C10.2291 11.2855 10.2183 11.2258 10.1962 11.1695C10.1739 11.1125 10.1451 11.0581 10.1118 11.0068C10.0472 10.907 9.96344 10.8214 9.86783 10.7509C9.66079 10.598 9.40968 10.5184 9.15877 10.4739V12.4297C9.45697 12.5011 9.75541 12.5789 10.0411 12.6916C10.4729 12.8619 10.8821 13.123 11.1178 13.5347C11.0812 13.4705 11.0457 13.408 11.119 13.5368C11.1911 13.6633 11.1567 13.603 11.1205 13.5396C11.308 13.8701 11.3696 14.2652 11.3289 14.6406Z" fill="#2B47FC"/>
</g>
<defs>
<clipPath id="clip0_65_140">
<rect width="18" height="21" fill="white"/>
</clipPath>
</defs>
</svg>
