<svg width="17" height="17" viewBox="0 0 17 17" fill="none" xmlns="http://www.w3.org/2000/svg">
<path d="M6.97168 13.6729C8.43066 13.6729 9.79296 13.1982 10.9004 12.4072L15.0664 16.5732C15.2598 16.7666 15.5147 16.8633 15.7784 16.8633C16.3496 16.8633 16.7627 16.4238 16.7627 15.8613C16.7627 15.5977 16.6748 15.3516 16.4815 15.1582L12.3418 11.0098C13.212 9.8672 13.7305 8.4521 13.7305 6.91406C13.7305 3.19629 10.6895 0.155273 6.97168 0.155273C3.24512 0.155273 0.212891 3.19629 0.212891 6.91406C0.212891 10.6318 3.24512 13.6729 6.97168 13.6729ZM6.97168 12.2139C4.0625 12.2139 1.67187 9.8145 1.67187 6.91406C1.67187 4.01367 4.0625 1.61426 6.97168 1.61426C9.87206 1.61426 12.2715 4.01367 12.2715 6.91406C12.2715 9.8145 9.87206 12.2139 6.97168 12.2139Z" fill="#3D56FA"/>
</svg>
