<svg width="19" height="20" viewBox="0 0 19 20" fill="none" xmlns="http://www.w3.org/2000/svg">
<path d="M9.27248 18.9707C10.5293 20.2275 11.8213 20.2451 13.1133 18.9619L18.6768 13.4072C19.96 12.124 19.9424 10.8232 18.6856 9.5664L10.0899 0.988276C9.43068 0.329096 9.06148 0.285156 8.12988 0.285156H4.79004C3.8584 0.285156 3.56836 0.513666 2.90918 1.17285L0.88769 3.19434C0.21972 3.8623 0 4.15234 0 5.08398V8.42383C0 9.3467 0.03515 9.7246 0.70312 10.3838L9.27248 18.9707ZM6.2666 7.31641C5.58105 7.31641 5.0625 6.78027 5.0625 6.1123C5.0625 5.43555 5.58105 4.9082 6.2666 4.9082C6.95215 4.9082 7.4707 5.43555 7.4707 6.1123C7.4707 6.78027 6.95215 7.31641 6.2666 7.31641Z" fill="#2B47FC"/>
</svg>
