<svg width="246" height="203" viewBox="0 0 246 203" fill="none" xmlns="http://www.w3.org/2000/svg">
<g clip-path="url(#clip0_123_670)">
<path d="M46.1832 157.365C46.1832 157.365 137.316 81.3066 189.803 157.365H46.1832Z" fill="#F2F2F2"/>
<path d="M195.728 202.931C219.039 202.931 237.937 199.986 237.937 196.353C237.937 192.72 219.039 189.775 195.728 189.775C172.417 189.775 153.519 192.72 153.519 196.353C153.519 199.986 172.417 202.931 195.728 202.931Z" fill="#F2F2F2"/>
<path d="M202.58 200.465C225.892 200.465 244.789 197.52 244.789 193.887C244.789 190.254 225.892 187.309 202.58 187.309C179.269 187.309 160.371 190.254 160.371 193.887C160.371 197.52 179.269 200.465 202.58 200.465Z" stroke="#3F3D56" stroke-width="0.653417"/>
<path d="M220.53 125.831C222.228 126.449 224.132 125.926 225.277 124.528C226.422 123.129 226.559 121.16 225.618 119.616C224.677 118.073 222.864 117.292 221.096 117.669L221.203 119.859L220.166 117.982C219.149 118.46 218.363 119.322 217.982 120.379C217.846 120.75 217.764 121.137 217.737 121.531C217.602 123.427 218.742 125.183 220.53 125.831Z" fill="#57B894"/>
<path d="M225.658 151.239C225.292 149.376 226.877 147.725 228.443 146.651C230.009 145.578 231.839 144.523 232.373 142.701C233.141 140.082 230.854 137.684 229.074 135.617C227.753 134.082 226.619 132.396 225.695 130.594C225.293 129.887 225.019 129.114 224.886 128.311C224.746 127.15 225.119 125.995 225.495 124.888C226.746 121.2 228.084 117.543 229.509 113.917" stroke="#3F3D56" stroke-width="0.653417"/>
<path fill-rule="evenodd" clip-rule="evenodd" d="M220.705 125.268C222.404 125.885 224.307 125.362 225.452 123.964C226.597 122.565 226.734 120.596 225.793 119.052C224.853 117.509 223.04 116.728 221.272 117.105L221.378 119.295L220.342 117.418C219.325 117.896 218.539 118.758 218.157 119.815C218.021 120.186 217.939 120.573 217.912 120.967C217.778 122.863 218.918 124.619 220.705 125.268Z" stroke="#3F3D56" stroke-width="0.653417"/>
<path d="M225.138 113.16C225.632 111.797 226.787 110.78 228.201 110.461L228.552 112.544L229.201 110.357C231.052 110.384 232.673 111.605 233.211 113.376C233.748 115.148 233.079 117.063 231.555 118.115C230.031 119.166 228.003 119.112 226.538 117.98C225.072 116.849 224.506 114.9 225.138 113.16Z" fill="#57B894"/>
<path fill-rule="evenodd" clip-rule="evenodd" d="M225.371 112.408C225.866 111.045 227.02 110.028 228.435 109.709L228.785 111.792L229.435 109.605C231.286 109.632 232.907 110.853 233.444 112.624C233.982 114.396 233.312 116.312 231.789 117.363C230.265 118.414 228.236 118.36 226.771 117.228C225.306 116.097 224.74 114.148 225.371 112.408Z" stroke="#3F3D56" stroke-width="0.653417"/>
<path d="M228.327 135.659C230.36 136.397 232.624 135.491 233.588 133.554C234.552 131.617 233.909 129.265 232.093 128.088L231.594 129.769L231.24 127.661C231.237 127.66 231.233 127.658 231.229 127.657C229.8 127.139 228.202 127.422 227.039 128.401C225.875 129.379 225.322 130.904 225.587 132.402C225.853 133.899 226.897 135.14 228.327 135.659Z" fill="#57B894"/>
<path fill-rule="evenodd" clip-rule="evenodd" d="M228.529 134.897C230.563 135.635 232.827 134.729 233.79 132.792C234.754 130.855 234.111 128.503 232.296 127.326L231.797 129.007L231.443 126.9C231.439 126.898 231.435 126.897 231.432 126.896C230.002 126.377 228.405 126.66 227.241 127.639C226.078 128.618 225.524 130.143 225.79 131.64C226.056 133.137 227.1 134.379 228.529 134.897Z" stroke="#3F3D56" stroke-width="0.653417"/>
<path d="M223.896 142.727C224.244 144.708 225.932 146.174 227.942 146.242C229.952 146.31 231.735 144.96 232.216 143.007C232.697 141.054 231.744 139.031 229.932 138.158C228.119 137.285 225.944 137.801 224.716 139.394L226.612 142.248L224.021 140.733C223.82 141.378 223.777 142.062 223.896 142.727Z" fill="#57B894"/>
<path fill-rule="evenodd" clip-rule="evenodd" d="M224.071 142.163C224.419 144.144 226.107 145.61 228.118 145.678C230.128 145.746 231.911 144.396 232.391 142.443C232.872 140.49 231.919 138.467 230.107 137.594C228.295 136.721 226.119 137.237 224.891 138.83L226.787 141.684L224.196 140.169C223.996 140.814 223.953 141.498 224.071 142.163Z" stroke="#3F3D56" stroke-width="0.653417"/>
<path d="M219.749 153.763C219.749 153.763 223.505 152.291 224.636 151.485C225.768 150.679 230.414 149.717 230.695 151.009C230.975 152.302 236.339 157.439 232.099 157.473C227.858 157.507 222.246 158.168 221.116 157.48C219.987 156.792 219.749 153.763 219.749 153.763Z" fill="#656380"/>
<path opacity="0.2" d="M232.174 157.023C227.934 157.057 222.322 157.719 221.192 157.03C220.332 156.506 219.989 154.626 219.874 153.758C219.795 153.762 219.749 153.763 219.749 153.763C219.749 153.763 219.987 156.792 221.116 157.48C222.246 158.169 227.858 157.507 232.099 157.473C233.323 157.463 233.745 157.027 233.722 156.383C233.552 156.772 233.085 157.016 232.174 157.023Z" fill="black"/>
<path d="M52.2811 114.197H51.3227C47.0461 114.197 43.5793 117.664 43.5793 121.94V149.759C43.5793 154.035 47.0461 157.502 51.3227 157.502H52.2811C56.5576 157.502 60.0244 154.035 60.0244 149.759V121.94C60.0244 117.664 56.5576 114.197 52.2811 114.197Z" fill="#2A46FF"/>
<path d="M83.5267 88.1587H82.5683C78.2918 88.1587 74.825 91.6255 74.825 95.902V149.759C74.825 154.035 78.2918 157.502 82.5683 157.502H83.5267C87.8032 157.502 91.27 154.035 91.27 149.759V95.902C91.27 91.6255 87.8032 88.1587 83.5267 88.1587Z" fill="#2A46FF"/>
<path d="M114.772 70.0691H113.814C109.537 70.0691 106.071 73.5359 106.071 77.8124V149.759C106.071 154.035 109.537 157.502 113.814 157.502H114.772C119.049 157.502 122.516 154.035 122.516 149.759V77.8124C122.516 73.5359 119.049 70.0691 114.772 70.0691Z" fill="#2A46FF"/>
<path d="M146.018 52.8018H145.059C140.783 52.8018 137.316 56.2686 137.316 60.5451V149.759C137.316 154.035 140.783 157.502 145.059 157.502H146.018C150.294 157.502 153.761 154.035 153.761 149.759V60.5451C153.761 56.2686 150.294 52.8018 146.018 52.8018Z" fill="#2A46FF"/>
<path d="M177.263 22.6526H176.305C172.029 22.6526 168.562 26.1194 168.562 30.3959V149.759C168.562 154.035 172.029 157.502 176.305 157.502H177.263C181.54 157.502 185.007 154.035 185.007 149.759V30.3959C185.007 26.1194 181.54 22.6526 177.263 22.6526Z" fill="#2A46FF"/>
<path d="M54.4738 112.004H53.5154C49.2388 112.004 45.772 115.471 45.772 119.747V147.566C45.772 151.842 49.2388 155.309 53.5154 155.309H54.4738C58.7503 155.309 62.2171 151.842 62.2171 147.566V119.747C62.2171 115.471 58.7503 112.004 54.4738 112.004Z" stroke="#3F3D56" stroke-width="0.653417"/>
<path d="M85.7194 85.9661H84.761C80.4844 85.9661 77.0176 89.4329 77.0176 93.7094V147.566C77.0176 151.843 80.4844 155.309 84.761 155.309H85.7194C89.9959 155.309 93.4627 151.843 93.4627 147.566V93.7094C93.4627 89.4329 89.9959 85.9661 85.7194 85.9661Z" stroke="#3F3D56" stroke-width="0.653417"/>
<path d="M116.965 67.8765H116.007C111.73 67.8765 108.263 71.3433 108.263 75.6198V147.566C108.263 151.842 111.73 155.309 116.007 155.309H116.965C121.241 155.309 124.708 151.842 124.708 147.566V75.6198C124.708 71.3433 121.241 67.8765 116.965 67.8765Z" stroke="#3F3D56" stroke-width="0.653417"/>
<path d="M148.211 50.6091H147.252C142.976 50.6091 139.509 54.0759 139.509 58.3525V147.566C139.509 151.842 142.976 155.309 147.252 155.309H148.211C152.487 155.309 155.954 151.842 155.954 147.566V58.3525C155.954 54.0759 152.487 50.6091 148.211 50.6091Z" stroke="#3F3D56" stroke-width="0.653417"/>
<path d="M179.456 20.46H178.498C174.221 20.46 170.754 23.9268 170.754 28.2033V147.566C170.754 151.843 174.221 155.309 178.498 155.309H179.456C183.733 155.309 187.199 151.843 187.199 147.566V28.2033C187.199 23.9268 183.733 20.46 179.456 20.46Z" stroke="#3F3D56" stroke-width="0.653417"/>
<path d="M235.986 157.639H0" stroke="#3F3D56" stroke-width="0.653417"/>
<path d="M221.104 131.348C221.104 131.348 223.684 140.633 220.417 142.009C217.149 143.385 218.181 131.692 218.181 131.692L221.104 131.348Z" fill="#A0616A"/>
<path d="M197.718 190.845C197.718 190.845 195.311 190.673 194.451 191.189C193.93 191.494 193.302 191.556 192.732 191.361C192.732 191.361 188.948 191.017 190.324 192.908C191.7 194.8 193.075 195.488 193.075 196.348C193.075 197.207 198.75 197.207 198.922 196.348C199.094 195.488 199.266 191.017 198.922 190.845C198.578 190.673 197.718 190.845 197.718 190.845Z" fill="#575A89"/>
<path d="M204.081 190.845C204.081 190.845 206.488 190.673 207.348 191.189C207.869 191.494 208.497 191.556 209.068 191.361C209.068 191.361 212.851 191.017 211.475 192.908C210.099 194.8 208.724 195.488 208.724 196.348C208.724 197.207 203.049 197.207 202.877 196.348C202.705 195.488 202.533 191.017 202.877 190.845C203.221 190.673 204.081 190.845 204.081 190.845Z" fill="#575A89"/>
<path d="M190.668 129.456C190.668 129.456 189.464 156.626 190.152 158.001C190.84 159.377 193.247 182.591 192.903 183.967C192.56 185.343 190.84 191.017 192.903 191.877C194.967 192.737 199.438 191.877 199.438 191.877C199.438 191.877 200.642 184.999 200.126 181.388C199.61 177.776 199.438 162.644 199.438 162.644L202.877 146.824L204.081 161.784C204.081 161.784 204.425 182.247 202.017 186.374C199.61 190.501 202.877 192.221 202.877 192.221C202.877 192.221 209.411 193.081 210.099 192.909C210.787 192.737 209.583 186.03 210.099 183.107C210.615 180.184 211.819 163.848 212.851 159.893C213.882 155.938 219.729 133.927 215.43 129.456C211.131 124.985 190.668 129.456 190.668 129.456Z" fill="#3F3D56"/>
<path d="M203.221 74.6017C206.545 74.6017 209.239 71.9071 209.239 68.5832C209.239 65.2593 206.545 62.5647 203.221 62.5647C199.897 62.5647 197.202 65.2593 197.202 68.5832C197.202 71.9071 199.897 74.6017 203.221 74.6017Z" fill="#A0616A"/>
<path d="M198.75 71.3345C198.75 71.3345 199.782 79.5884 199.266 79.7604C198.75 79.9324 208.38 79.7604 208.38 79.7604C208.38 79.7604 206.488 74.7736 208.38 70.8186L198.75 71.3345Z" fill="#A0616A"/>
<path d="M198.75 78.0408C198.75 78.0408 202.941 73.9138 207.896 78.0408L208.217 79.2709L205.628 79.2445H198.75V78.0408Z" fill="#F2F2F2"/>
<path d="M219.213 130.832C218.816 130.911 217.843 131.073 216.573 131.265C212.348 131.903 204.861 132.87 204.597 132.208C204.253 131.348 203.049 128.253 202.189 129.628C201.329 131.004 201.845 132.208 198.234 132.38C195.777 132.497 192.205 132.135 190.228 131.568C189.299 131.301 188.721 130.99 188.777 130.66C188.948 129.628 190.84 110.025 190.84 108.134C190.84 106.242 191.528 97.1283 191.528 97.1283L186.586 87.4041L186.197 86.6389C186.197 86.6389 186.713 84.7473 188.261 84.4034C189.808 84.0595 197.202 79.7606 197.202 79.7606C197.202 79.7606 198.75 77.3532 201.673 77.5251C204.597 77.6971 205.284 76.4934 209.239 79.7606C209.239 79.7606 214.054 81.8241 215.774 82.8558C217.493 83.8876 219.385 83.8876 219.557 85.6071C219.591 85.9528 219.404 86.6183 219.082 87.4591C217.904 90.5406 214.928 95.9934 214.462 96.8429C214.421 96.9168 214.398 96.9564 214.398 96.9564C214.398 96.9564 214.309 100.048 214.403 103.668V103.676C214.496 107.148 214.758 111.105 215.43 113.292C216.806 117.763 220.933 130.488 219.213 130.832Z" fill="#575A89"/>
<path d="M211.034 66.1126C210.914 65.5648 210.682 65.0475 210.354 64.5927C210.223 63.335 209.803 62.1246 209.128 61.0557C208.863 60.5548 208.488 60.1211 208.03 59.7879C207.505 59.4858 206.906 59.3366 206.301 59.3571C206.192 59.3553 205.994 59.3885 205.817 59.3966C205.703 59.3614 205.588 59.33 205.473 59.3005C205.406 59.1512 205.273 58.7159 205.236 58.7454L204.735 59.1438C204.523 59.107 204.309 59.0783 204.096 59.0556C204.018 58.8334 203.94 58.6113 203.862 58.3892C203.736 58.5879 203.625 58.796 203.531 59.0118C203.318 59.0014 203.105 58.9977 202.891 59.0009L202.465 58.5914C202.414 58.8247 202.229 59.0055 201.995 59.052C201.799 59.0721 201.604 59.0984 201.409 59.1297C201.393 59.1296 201.377 59.1297 201.362 59.1293C200.312 59.1031 199.183 59.0561 198.305 59.6323C197.894 59.9143 197.56 60.2937 197.332 60.7367C197.224 60.8097 197.117 60.8822 197.012 60.9596C196.66 61.1998 196.355 61.5023 196.112 61.8522C195.935 62.154 195.801 62.4788 195.714 62.8175C195.379 63.8366 195.223 64.9063 195.255 65.9786C195.291 67.0583 195.698 68.0925 196.408 68.9066C196.858 69.3902 197.431 69.7474 197.881 70.2305C198.81 71.2252 198.984 72.6125 199.777 73.6649C200.617 74.7781 202.15 75.5107 203.495 75.7206C205.13 75.9669 206.795 75.5517 208.122 74.5667C208.437 74.3471 208.705 74.0662 208.91 73.7408C209.377 72.9328 209.179 71.9173 209.352 71.0002C209.678 69.2813 211.318 67.8388 211.034 66.1126Z" fill="#3F3D56"/>
<path d="M188.089 131.864C188.089 131.864 190.668 141.149 187.401 142.525C184.134 143.901 185.165 132.207 185.165 132.207L188.089 131.864Z" fill="#A0616A"/>
<path opacity="0.1" d="M191.182 110.792C191.182 110.792 190.054 127.534 190.228 131.568C189.299 131.301 188.721 130.99 188.777 130.66C188.948 129.628 190.84 110.025 190.84 108.133C190.84 106.242 191.528 97.1281 191.528 97.1281L186.586 87.4039C186.665 86.9224 186.713 86.6387 186.713 86.6387L189.206 91.8834L192.732 92.8291L191.182 110.792Z" fill="black"/>
<path d="M187.401 85.6069L186.197 86.6387C186.197 86.6387 184.65 95.7524 184.821 97.9879C184.993 100.223 181.21 134.099 184.134 134.099C187.057 134.099 190.324 133.583 189.808 132.379C189.292 131.176 190.667 110.792 190.667 110.792L192.216 92.8292L187.401 85.6069Z" fill="#575A89"/>
<path opacity="0.1" d="M219.082 87.4589C217.904 90.5404 214.928 95.9932 214.462 96.8427C214.476 94.6433 214.484 93.0871 214.484 93.0871L218.095 85.6929L218.869 85.0911C218.869 85.0911 218.952 86.0007 219.082 87.4589Z" fill="black"/>
<path opacity="0.1" d="M219.213 130.832C218.816 130.911 217.842 131.073 216.573 131.265C215.915 126.395 214.154 112.391 214.266 111.072C214.321 110.422 214.367 107.21 214.403 103.676C214.496 107.148 214.758 111.105 215.43 113.292C216.806 117.763 220.933 130.488 219.213 130.832Z" fill="black"/>
<path d="M216.978 84.4033L219.557 85.0911C219.557 85.0911 221.276 104.178 221.448 107.446C221.62 110.713 223.684 130.832 223.34 131.692C222.996 132.551 217.665 133.755 217.493 132.895C217.321 132.036 214.822 112.635 214.954 111.072C215.086 109.509 214.226 93.3451 214.226 93.3451L216.978 84.4033Z" fill="#575A89"/>
<path d="M53.8575 95.4219L85.1031 69.3839L116.623 51.5684L147.868 34.3011L179.114 4.15186" stroke="#3F3D56" stroke-width="0.653417"/>
<path d="M53.0353 99.8072C54.7003 99.8072 56.0502 98.4574 56.0502 96.7923C56.0502 95.1272 54.7003 93.7773 53.0353 93.7773C51.3702 93.7773 50.0203 95.1272 50.0203 96.7923C50.0203 98.4574 51.3702 99.8072 53.0353 99.8072Z" fill="#F2F2F2"/>
<path d="M84.2809 73.7693C85.946 73.7693 87.2958 72.4195 87.2958 70.7544C87.2958 69.0893 85.946 67.7395 84.2809 67.7395C82.6158 67.7395 81.2659 69.0893 81.2659 70.7544C81.2659 72.4195 82.6158 73.7693 84.2809 73.7693Z" fill="#F2F2F2"/>
<path d="M115.801 55.9537C117.466 55.9537 118.815 54.6039 118.815 52.9388C118.815 51.2737 117.466 49.9238 115.801 49.9238C114.135 49.9238 112.786 51.2737 112.786 52.9388C112.786 54.6039 114.135 55.9537 115.801 55.9537Z" fill="#F2F2F2"/>
<path d="M147.046 38.6866C148.711 38.6866 150.061 37.3368 150.061 35.6717C150.061 34.0066 148.711 32.6567 147.046 32.6567C145.381 32.6567 144.031 34.0066 144.031 35.6717C144.031 37.3368 145.381 38.6866 147.046 38.6866Z" fill="#F2F2F2"/>
<path d="M178.292 8.53718C179.957 8.53718 181.307 7.18735 181.307 5.52225C181.307 3.85715 179.957 2.50732 178.292 2.50732C176.627 2.50732 175.277 3.85715 175.277 5.52225C175.277 7.18735 176.627 8.53718 178.292 8.53718Z" fill="#F2F2F2"/>
<path d="M53.8575 98.4368C55.5226 98.4368 56.8724 97.087 56.8724 95.4219C56.8724 93.7568 55.5226 92.407 53.8575 92.407C52.1924 92.407 50.8426 93.7568 50.8426 95.4219C50.8426 97.087 52.1924 98.4368 53.8575 98.4368Z" stroke="#3F3D56" stroke-width="0.653417"/>
<path d="M85.1031 72.3988C86.7682 72.3988 88.118 71.0489 88.118 69.3838C88.118 67.7187 86.7682 66.3689 85.1031 66.3689C83.438 66.3689 82.0882 67.7187 82.0882 69.3838C82.0882 71.0489 83.438 72.3988 85.1031 72.3988Z" stroke="#3F3D56" stroke-width="0.653417"/>
<path d="M116.623 54.5833C118.288 54.5833 119.638 53.2335 119.638 51.5684C119.638 49.9033 118.288 48.5535 116.623 48.5535C114.958 48.5535 113.608 49.9033 113.608 51.5684C113.608 53.2335 114.958 54.5833 116.623 54.5833Z" stroke="#3F3D56" stroke-width="0.653417"/>
<path d="M147.868 37.316C149.533 37.316 150.883 35.9662 150.883 34.3011C150.883 32.636 149.533 31.2861 147.868 31.2861C146.203 31.2861 144.853 32.636 144.853 34.3011C144.853 35.9662 146.203 37.316 147.868 37.316Z" stroke="#3F3D56" stroke-width="0.653417"/>
<path d="M179.114 7.16681C180.779 7.16681 182.129 5.81699 182.129 4.15189C182.129 2.48679 180.779 1.13696 179.114 1.13696C177.449 1.13696 176.099 2.48679 176.099 4.15189C176.099 5.81699 177.449 7.16681 179.114 7.16681Z" stroke="#3F3D56" stroke-width="0.653417"/>
</g>
<defs>
<clipPath id="clip0_123_670">
<rect width="246" height="203" fill="white"/>
</clipPath>
</defs>
</svg>
