<svg width="11" height="15" viewBox="0 0 11 15" fill="none" xmlns="http://www.w3.org/2000/svg">
<g clip-path="url(#clip0_65_83)">
<mask id="mask0_65_83" style="mask-type:luminance" maskUnits="userSpaceOnUse" x="0" y="0" width="11" height="15">
<path d="M11 3.9166C11 4.37256 10.6727 4.71161 10.2168 4.71161H4.16153L2.36132 4.62977L3.67056 5.72876L4.58236 6.50039C4.73432 6.62899 4.81615 6.83944 4.81615 7.07327C4.81615 7.50585 4.47715 7.84489 4.04463 7.84489C3.82253 7.84489 3.63549 7.76305 3.49522 7.62276L0.303932 4.60639C0.0935175 4.40764 0 4.15043 0 3.9166C0 3.68277 0.0818278 3.46064 0.303932 3.25019L3.49522 0.21044C3.63549 0.07015 3.82253 0 4.04463 0C4.47715 0 4.81615 0.32736 4.81615 0.75994C4.81615 0.99376 4.73432 1.19252 4.58236 1.32112L3.67056 2.11613L2.37301 3.20343L4.16153 3.12159H10.2168C10.6727 3.12159 11 3.44895 11 3.9166ZM11 11.0717C11 11.3172 10.9065 11.5627 10.6961 11.7615L7.50478 14.7896C7.36451 14.9299 7.17747 15 6.95537 15C6.52285 15 6.18385 14.661 6.18385 14.2284C6.18385 14.0062 6.26568 13.7841 6.41764 13.6672L7.32944 12.8956L8.65037 11.7966L6.83847 11.8667H0.783209C0.327311 11.8667 0 11.5394 0 11.0717C0 10.6157 0.327311 10.2884 0.783209 10.2884H6.83847L8.62699 10.3585L7.32944 9.28293L6.41764 8.48792C6.26568 8.35931 6.18385 8.16056 6.18385 7.92673C6.18385 7.49415 6.52285 7.1668 6.95537 7.1668C7.17747 7.1668 7.36451 7.22525 7.50478 7.36555L10.6961 10.417C10.9182 10.6274 11 10.8496 11 11.0717Z" fill="white"/>
</mask>
<g mask="url(#mask0_65_83)">
<path fill-rule="evenodd" clip-rule="evenodd" d="M-3 -5H18V20H-3V-5Z" fill="#2B47FC"/>
</g>
</g>
<defs>
<clipPath id="clip0_65_83">
<rect width="11" height="15" fill="white"/>
</clipPath>
</defs>
</svg>
