<svg width="24" height="24" viewBox="0 0 24 24" fill="none" xmlns="http://www.w3.org/2000/svg">
<g clip-path="url(#clip0_109_241)">
<path d="M20.266 8.49576L22.067 6.89449L22.0739 6.88881C23.522 5.54726 24.2191 3.58029 23.9392 1.62605L23.8738 1.16202C23.7952 0.634533 23.3811 0.220259 22.8537 0.141517L22.3932 0.0764869C20.435 -0.204005 18.4641 0.49605 17.1212 1.94866L15.5199 3.74992L14.6545 3.252C12.3763 1.94533 9.79509 1.25976 7.1688 1.26349L6.42409 1.26623C5.71013 1.26956 5.0514 1.65132 4.69354 2.26911L4.55329 2.51277C4.44282 2.70454 4.50844 2.94957 4.7 3.06024L12.3428 7.4729L6.37042 14.2396L5.91305 14.8276C4.67278 14.1481 3.28148 13.7912 1.86707 13.7899L1.26299 13.7871C0.835398 13.792 0.441298 14.0202 0.224465 14.3888L0.0538584 14.6809C0.000580508 14.773 -0.0139142 14.8826 0.0137041 14.9855C0.0411265 15.0883 0.108507 15.1761 0.200764 15.2291L4.09181 17.4756C3.98153 17.6889 3.87694 17.9028 3.78174 18.1226C3.57255 18.6182 3.62387 19.1854 3.91866 19.6353C4.21345 20.0853 4.71293 20.3589 5.2508 20.3652C5.47155 20.3648 5.68995 20.3193 5.89268 20.232C5.90287 20.2279 5.91305 20.2232 5.92265 20.2179C6.12323 20.1317 6.32987 20.0302 6.53966 19.9219L8.78614 23.813C8.83903 23.9056 8.92658 23.9736 9.02961 24.0014C9.13264 24.0294 9.24253 24.0151 9.33498 23.9618L9.62977 23.7914H9.63212C10.0006 23.5726 10.2278 23.1768 10.2307 22.7484L10.228 22.1517C10.2262 20.7362 9.86835 19.3437 9.18729 18.1026L9.76688 17.6517L16.5389 11.6723L20.9539 19.3161C21.0647 19.5076 21.3098 19.5734 21.5015 19.463L21.745 19.3229C22.363 18.9649 22.7447 18.3059 22.7479 17.5916L22.7502 16.8479C22.761 14.2208 22.0751 11.6376 20.7625 9.36192L20.266 8.49576ZM6.42703 2.06853L7.17155 2.06575C9.65661 2.06011 12.0992 2.70904 14.2538 3.94716L14.9856 4.3681L12.878 6.85845L5.45294 2.57036C5.67879 2.25716 6.04076 2.07069 6.42703 2.06853ZM1.26495 14.5894L1.86668 14.5922C3.10382 14.5924 4.32236 14.8928 5.41769 15.4679L5.16579 15.7925C5.02006 15.9766 4.88177 16.1711 4.74701 16.3709C4.70686 16.4287 4.67082 16.4876 4.63262 16.5466C4.58326 16.6232 4.53155 16.697 4.48376 16.7756L0.953706 14.7389C1.0301 14.6452 1.1441 14.5904 1.26495 14.5894ZM9.42352 22.1523L9.42645 22.745C9.42645 22.8679 9.37122 22.984 9.27641 23.0616L7.2401 19.5315C7.31786 19.4841 7.39093 19.4336 7.46673 19.3846C7.52647 19.3447 7.58719 19.308 7.64576 19.2683C7.84026 19.1376 8.02928 19.0033 8.20733 18.8632L8.21928 18.8544L8.54835 18.5984C9.12363 19.6947 9.42391 20.9142 9.42352 22.1523ZM9.25467 17.0339L8.42906 17.6758C8.42906 17.6758 8.42436 17.6758 8.4224 17.6793L7.72274 18.225C7.33608 18.5281 6.92592 18.8001 6.49598 19.0381C6.19903 19.2064 5.89327 19.3588 5.58026 19.4947C5.57125 19.4982 5.56283 19.5021 5.55401 19.5067C5.25217 19.6232 4.90978 19.5478 4.68472 19.3155C4.45947 19.083 4.39503 18.7384 4.52117 18.4403C4.65789 18.125 4.81106 17.817 4.98049 17.5177C5.21887 17.0858 5.49134 16.6737 5.79553 16.2855L6.33712 15.5905C6.33712 15.5905 6.33712 15.5862 6.34026 15.5843L6.98821 14.7498L17.7151 2.4879C18.7011 1.4241 20.0854 0.818655 21.536 0.817088C21.7844 0.817088 22.0324 0.834913 22.2782 0.870758L22.7387 0.935788C22.9146 0.96184 23.0532 1.09954 23.0799 1.27563L23.1453 1.73927C23.387 3.43143 22.7833 5.13455 21.5299 6.29668L9.25467 17.0339ZM21.9471 17.5892C21.945 17.9751 21.7583 18.3369 21.4449 18.5623L17.1574 11.1354L19.6486 9.02971L20.0701 9.76229C21.3119 11.9161 21.9605 14.3608 21.9495 16.8471L21.9471 17.5892Z" fill="#A73131"/>
<path d="M19.3761 2.9908C19.8491 2.7109 20.4518 2.78709 20.8402 3.1759C21.2287 3.56491 21.3045 4.16742 21.024 4.64026C20.911 4.83085 20.9738 5.07687 21.1642 5.19008C21.3548 5.3031 21.601 5.24042 21.714 5.04983C22.1814 4.26203 22.0557 3.25758 21.4083 2.60924C20.7609 1.96109 19.7567 1.83377 18.9681 2.29995C18.8431 2.37203 18.7665 2.50582 18.7675 2.64998C18.7683 2.79434 18.8466 2.92695 18.9726 2.99746C19.0985 3.06798 19.2527 3.06543 19.3761 2.9908Z" fill="#A73131"/>
</g>
<defs>
<clipPath id="clip0_109_241">
<rect width="24" height="24" fill="white"/>
</clipPath>
</defs>
</svg>
